<svg xmlns="http://www.w3.org/2000/svg" width="1135.836" height="894.849" viewBox="0 0 1135.836 894.849"><defs><style>.a{fill:#7b9db7;}.b{fill:rgba(65,99,126,0.3);}.c{fill:#e6e6e6;}.d{fill:#fff;}.e{fill:#ffca18;}.f{fill:#2f2e41;}.g{fill:#ffb8b8;}.h{fill:#3f3d56;}.i{opacity:0.3;}</style></defs><g transform="translate(8 -4)"><g transform="translate(-8 4)"><path class="a" d="M40.7,552.3c-11.156-17.656-5.326-40.673,13.023-51.408L874.968,20.4c18.349-10.735,42.268-5.125,53.424,12.532l242.477,383.743L1167.874,909.8H670l-400.4-.273Z" transform="translate(-35.033 -14.953)"/><path class="b" d="M301.52,970.562,751.3,840.667l449.476,131.219Z" transform="translate(-67.773 -77.624)"/><path class="b" d="M75.826,660.8l647.013,180.56L268.78,966.378Z" transform="translate(-35.033 -72.624)"/><path class="b" d="M1190.772,660V970.886L745.579,838.915Z" transform="translate(-57.773 -76.624)"/><path class="b" d="M946.079,971.886,1182.325,794.84l18.447,177.046Z" transform="translate(-67.773 -77.624)"/><path class="b" d="M275.744,963.443,509.579,828.334l224,143.552Z" transform="translate(-45.827 -77.624)"/><path class="b" d="M583.079,964.1l241.5-135.763,224,143.552Z" transform="translate(-67.772 -77.624)"/><path class="b" d="M547.079,963.886H282.534L154.079,768.092Z" transform="translate(-43.033 -69.624)"/></g></g><g transform="translate(212 210.33)"><rect class="c" width="643.862" height="412.358" transform="translate(0.275 0.365)"/><rect class="d" width="607.039" height="336.243" transform="translate(18.686 52.085)"/><rect class="e" width="643.862" height="27.354"/><circle class="d" cx="5.07" cy="5.07" r="5.07" transform="translate(15.257 8.915)"/><circle class="d" cx="5.07" cy="5.07" r="5.07" transform="translate(34.501 8.915)"/><circle class="d" cx="5.07" cy="5.07" r="5.07" transform="translate(53.744 8.915)"/><rect class="c" width="155.981" height="266.467" transform="translate(73.844 86.973)"/><rect class="e" width="129.984" height="73.348" transform="translate(256.75 86.973)"/><rect class="c" width="129.984" height="78.919" transform="translate(256.75 180.747)"/><rect class="c" width="129.984" height="73.348" transform="translate(256.75 280.092)"/><rect class="c" width="155.981" height="116.125" transform="translate(414.587 86.973)"/><rect class="e" width="155.981" height="116.125" transform="translate(414.587 237.315)"/><path class="f" d="M936.787,353.085c-10.289-17.536-30.645-18.353-30.645-18.353s-19.836-2.559-32.56,24.148c-11.86,24.893-28.229,48.928-2.635,54.755l4.623-14.513,2.863,15.594a99.278,99.278,0,0,0,10.951.189c27.409-.893,53.511.261,52.671-9.659C940.937,392.058,946.687,369.958,936.787,353.085Z" transform="translate(-200.148 -146.406)"/><path class="g" d="M839.217,446.712l-9,23-45,42s-27,20-15,26,23-22,23-22l48-29,10-33Z" transform="translate(-200.148 -146.406)"/><path class="g" d="M654.068,555.306l9,23h13l-11-27Z"/><path class="g" d="M693.068,565.306l9,23h13l-11-27Z"/><path class="f" d="M892.217,715.712l17-4-22-89,7.3-68.481.2-.019s12.5-48.5,2.5-61.5-60-8-60-8-19,19-18,62,0,80,7,97,27,62,27,62l16-2-17-74L849.5,565.385c2.163,25.778,6.517,74.659,8.718,78.327C861.217,648.712,892.217,715.712,892.217,715.712Z" transform="translate(-200.148 -146.406)"/><path class="g" d="M943.217,467.712l7,25,31,56s27,24,16,27-28-22-28-22l-35-49-9-36Z" transform="translate(-200.148 -146.406)"/><circle class="g" cx="25" cy="25" r="25" transform="translate(682.068 200.306)"/><path class="g" d="M894.217,384.712l-6,19-10,22,37-15s-2-16,0-20Z" transform="translate(-200.148 -146.406)"/><path class="e" d="M937.217,424.712l-23-19-26,11,1.019-16.226-27.741,8.86-4.278,1.366-6,31s-4,3-8,20a146.505,146.505,0,0,1-10,29s43-17,64,6c0,0,3-2,2-5s9-18,9-18,0,3,4-3,7-7,7-7Z" transform="translate(-200.148 -146.406)"/><path class="e" d="M863.217,413.712l-4.368-3.521s-3.632-1.479-6.632,3.521-18,36-18,36l18,9Z" transform="translate(-200.148 -146.406)"/><path class="e" d="M923.217,423.712l14,1s8,4,8,10,2,38,2,38l-22,7-9-28Z" transform="translate(-200.148 -146.406)"/><path class="f" d="M860.327,721.212l-17,7s-20,1-17,11,33,3,33,3,27,1,27-6-4-15-8-15Z" transform="translate(-200.148 -146.406)"/><path class="f" d="M898.327,730.212l-17,7s-20,1-17,11,33,3,33,3,27,1,27-6-4-15-8-15Z" transform="translate(-200.148 -146.406)"/><path class="f" d="M732.09,204.989l-20.111-10.626-27.771,4.347-5.746,25.6,14.3-.554,4-9.4v9.25l6.6-.256,3.83-14.972,2.394,15.937,23.463-.483Z"/><path class="h" d="M797.728,229.953a135.02,135.02,0,1,0,7.655,199.4L971,569.1a12.442,12.442,0,0,0,16.048-19.018L821.431,410.337a135.027,135.027,0,0,0-23.7-180.384ZM787.052,396.88a101.158,101.158,0,1,1-12.077-142.548A101.158,101.158,0,0,1,787.052,396.88Z" transform="translate(-200.148 -146.406)"/><path class="i" d="M644.5,408.957a101.163,101.163,0,0,1-17.166-135.989q-2.9,2.922-5.609,6.12A101.158,101.158,0,1,0,776.354,409.559q2.7-3.2,5.089-6.559A101.163,101.163,0,0,1,644.5,408.957Z" transform="translate(-200.148 -146.406)"/></g></svg>