<svg xmlns="http://www.w3.org/2000/svg" width="1172.367" height="970.034" viewBox="0 0 1172.367 970.034"><defs><style>.a{fill:#7b9db7;}.b{fill:rgba(65,99,126,0.3);}.c{fill:#e6e6e6;}.d{fill:#324351;}.e{fill:#ffca18;}.f{opacity:0.2;}.g{fill:#3f3d56;}.h{fill:#ffb9b9;}.i{fill:#2f2e41;}.j{opacity:0.3;}</style></defs><g transform="translate(-35.032 -14.953)"><path class="a" d="M40.86,589.418a40,40,0,0,1,13.4-54.959L899.1,20.781a40,40,0,0,1,54.959,13.4L1203.5,444.428l3.9,540.476-930.194-6.771Z"/><path class="b" d="M276.079,977,752.911,840.667,1204,975.846Z"/><path class="b" d="M85.579,660l677.5,183.5-488,127Z"/><path class="b" d="M1200.16,660V976.246L745.579,842Z"/><path class="b" d="M946.079,977.326,1185.31,794.84l18.68,182.486Z"/><path class="b" d="M268.079,976.487l241.5-148.153,224,156.653Z"/><path class="b" d="M583.079,976.487l241.5-148.153,224,156.653Z"/><path class="b" d="M547.079,977.307H282.534L154.079,768.092Z"/></g><g transform="translate(92 269.617)"><path class="c" d="M1043.67,508.056a98.58,98.58,0,1,0-189.216,38.809c-.1-.107-.2-.211-.292-.319a98.666,98.666,0,0,0,17.954,27.783l.068.073c.606.66,1.215,1.317,1.838,1.96a98.28,98.28,0,0,0,69.529,30.253l-3.331,180.93h10.291L948.428,668.13l14.887-7.838-2.271-4.314-12.711,6.692-.978-56.064A98.578,98.578,0,0,0,1043.67,508.056Z" transform="translate(-146 -95.014)"/><path class="c" d="M751.087,460.008a115.526,115.526,0,1,0-221.75,45.481c-.113-.126-.23-.248-.342-.374a115.628,115.628,0,0,0,21.041,32.559l.08.086c.71.773,1.423,1.543,2.154,2.3a115.176,115.176,0,0,0,81.482,35.455l-3.9,212.033h12.06L639.467,647.6l17.446-9.185-2.661-5.055-14.9,7.842-1.146-65.7A115.525,115.525,0,0,0,751.087,460.008Z" transform="translate(-150.459 -95.014)"/><path class="c" d="M419.259,414.815a131.467,131.467,0,1,0-252.347,51.756c-.129-.143-.261-.282-.389-.425A131.582,131.582,0,0,0,190.467,503.2l.091.1c.808.88,1.62,1.756,2.451,2.614a131.068,131.068,0,0,0,92.725,40.346l-4.442,241.29h13.725l-2.778-159.254,19.853-10.452-3.029-5.753-16.952,8.925-1.3-74.767A131.465,131.465,0,0,0,419.259,414.815Z" transform="translate(-156 -95.014)"/><circle class="d" cx="85.976" cy="85.976" r="85.976" transform="translate(680.709 0)"/><circle class="e" cx="172.312" cy="172.312" r="172.312" transform="translate(73.247 15.304)"/><path class="f" d="M274.329,183.922a172.325,172.325,0,0,0,287.123,182.37,172.327,172.327,0,1,1-287.123-182.37Z" transform="translate(-156 -111.396)"/><path class="g" d="M246.032,187.616h.474l8.521,488.532H237.038Z" transform="translate(2.725 16.383)"/><rect class="g" width="8.521" height="32.19" transform="translate(276.301 457.343) rotate(62.234)"/><path class="g" d="M665.115,782.975s.622-13.027,13.366-11.513" transform="translate(-150.179 -95.014)"/><circle class="e" cx="6.379" cy="6.379" r="6.379" transform="translate(504.838 662.807)"/><rect class="g" width="1.801" height="12.604" transform="translate(510.169 679.928)"/><path class="g" d="M223.083,781.174s.622-13.027,13.366-11.513" transform="translate(-156 -95.014)"/><circle class="e" cx="6.379" cy="6.379" r="6.379" transform="translate(57.103 661.007)"/><rect class="g" width="1.801" height="12.604" transform="translate(62.444 678.127)"/><path class="g" d="M327.514,782.075s.622-13.027,13.366-11.513" transform="translate(-154.039 -95.014)"/><circle class="e" cx="6.379" cy="6.379" r="6.379" transform="translate(161.534 661.907)"/><rect class="g" width="1.801" height="12.604" transform="translate(166.875 679.027)"/><path class="g" d="M605.243,194.7l12.795-10.233c-9.94-1.1-14.024,4.324-15.7,8.615-7.765-3.224-16.219,1-16.219,1l25.6,9.294a19.372,19.372,0,0,0-6.481-8.677Z" transform="translate(-150.976 -111.396)"/><path class="g" d="M799.827,298.936,812.622,288.7c-9.94-1.1-14.024,4.324-15.7,8.615-7.765-3.224-16.219,1-16.219,1l25.6,9.294a19.373,19.373,0,0,0-6.481-8.677Z" transform="translate(-148.703 -106.987)"/><path class="g" d="M589.955,387.889l12.795-10.233c-9.94-1.1-14.024,4.324-15.7,8.615-7.765-3.224-16.219,1-16.219,1l25.6,9.294A19.372,19.372,0,0,0,589.955,387.889Z" transform="translate(-151.154 -104.772)"/><path class="h" d="M515.255,729.276s10.021,29.348,5.726,40.085l12.884,11.453,7.874-10.021s-8.59-8.59-7.874-15.032,1.432-29.348,1.432-29.348Z" transform="translate(-151.83 -95.014)"/><path class="i" d="M563.21,786.536c-.585.342-1.143.666-1.656.963H517.125a2.345,2.345,0,0,1-1.152-2.395c.207-1.062.738-3.223,1.4-5.708,1.557-5.879,3.844-13.576,4.339-12.757a.009.009,0,0,1,.006,0,.009.009,0,0,1,0,.006c.693,1.278,2.125,7,5.708,6.293s9.309-2.152,9.309-2.152-2.044-4.591-.09-6.446a2.739,2.739,0,0,1,1.521-.711c4.294-.711,4.294,5.726,4.294,5.726l15.746,8.589a26.153,26.153,0,0,1,3.961,1.449C565.362,780.891,568.521,783.448,563.21,786.536Z" transform="translate(-151.704 -95.014)"/><path class="h" d="M486.623,718.539l-18.611,22.19L463,752.182l6.442,5.011,5.726-2.147s5.011-12.884,10.021-15.032,17.18-16.464,17.18-16.464Z" transform="translate(-152.382 -95.014)"/><path class="i" d="M525.634,701.51,516.142,719.1l-6.8,12.6c-2.176,1.3-5.075,1.274-8.2.508a31.389,31.389,0,0,1-4.266-1.424c-8.518-3.486-17.158-10.408-17.158-10.408l16.349-20.429,5.34-6.664,1.267-1.589,6.106,2.613,10.773,4.6Z" transform="translate(-152.156 -95.014)"/><path class="h" d="M483.274,549.581l-7.582,31.1,7.8,39.9s.192,16.311,7.344,15.073-.343-17.688-.343-17.688L487,585.25l11.185-32.321a5.939,5.939,0,0,0-2.862-7.031h0C490.893,543.193,484.6,545.117,483.274,549.581Z" transform="translate(-152.305 -99.287)"/><path class="h" d="M509.887,522.768l-6.442,20.042-12.169-6.442s5.011-14.316,5.011-16.463S509.887,522.768,509.887,522.768Z" transform="translate(-152.144 -101.173)"/><circle class="h" cx="15.032" cy="15.032" r="15.032" transform="translate(337.735 399.033)"/><path class="e" d="M508.813,547.463,505.95,544.6l-.716-3.579s-9.305-12.169-17.179-7.874c-2.461,1.342-4.292,4.432-5.647,8.046a39.085,39.085,0,0,0,.9,29.072l12.622,29.451,28.632-2.863-5.011-18.611s5.011-11.453-4.295-19.326Z" transform="translate(-152.158 -100.089)"/><path class="j" d="M525.634,701.51,516.142,719.1l-6.8,12.6c-2.176,1.3-5.075,1.274-8.2.508-.544-3.622,2.706-22.762.15-38.367l.115-.558,1.267-1.589,6.106,2.613,10.773,4.6Z" transform="translate(-152.003 -95.014)"/><path class="i" d="M525.634,595.063s-18.611-11.453-31.5,2.863l.716,4.295s-10.737,12.169-4.295,37.937,16.463,93.054,16.463,93.054,23.621,1.432,34.358-6.442c0,0-3.579-88.759-15.748-97.349Z" transform="translate(-152.019 -95.014)"/><path class="h" d="M486.827,555.2l20.2,24.836,36.506,17.9s13.111,9.7,16.447,3.258-14.3-10.416-14.3-10.416L517.5,573.785,498.5,545.341a5.939,5.939,0,0,0-7.332-1.969h0C486.342,545.266,484.071,551.442,486.827,555.2Z" transform="translate(-151.947 -99.934)"/><path class="i" d="M473.446,753.472s4.388-5.518,7.009-2.041-3.091,6.456-3.091,6.456l-.332,17.935s3.117,13.714-5.3,8.415-8.746-5.933-10.4-9.106S456.256,759.21,453.3,755.1s-5.655-12.389-2.151-13.41,19.838-4.654,19.025-3.444-5.229,5.128-2.939,7.97S473.446,753.472,473.446,753.472Z" transform="translate(-152.573 -95.014)"/><path class="i" d="M512.749,502.78c0-.018,0-.036,0-.055a20.758,20.758,0,1,0-20.758,20.758c.482,0,2.389,3.611,2.863,3.579C494.884,516.1,501.972,503.516,512.749,502.78Z" transform="translate(-152.276 -101.792)"/><circle class="i" cx="13.6" cy="13.6" r="13.6" transform="translate(303.689 371.105)"/><path class="i" d="M469.178,466.376A13.581,13.581,0,0,1,473.058,493a13.59,13.59,0,1,0-3.88-26.622Z" transform="translate(-152.403 -102.464)"/><path class="i" d="M345.3,387.034h7.158a12.884,12.884,0,0,1,12.884,12.884H345.3Z" transform="translate(3.978 9.544)"/><path class="g" d="M839.655,787.7s.622-13.027,13.366-11.513" transform="translate(-148.184 -95.014)"/><path class="g" d="M719.919,787.7s.622-13.027,13.366-11.513" transform="translate(-149.553 -95.014)"/><path class="g" d="M283.289,787.7s.622-13.027,13.366-11.513" transform="translate(-156 -95.014)"/><path class="g" d="M893.671,787.7s.622-13.027,13.366-11.513" transform="translate(-146 -95.014)"/><path class="g" d="M868.464,787.7s.622-13.027,13.366-11.513" transform="translate(-146 -95.014)"/><path class="g" d="M816.465,787.7s-.622-13.027-13.366-11.513" transform="translate(-148.601 -95.014)"/><path class="g" d="M609.4,787.7s-.622-13.027-13.366-11.513" transform="translate(-150.969 -95.014)"/><path class="g" d="M437.452,787.7s-.622-13.027-13.366-11.513" transform="translate(-152.935 -95.014)"/><path class="g" d="M254.7,787.7s-.622-13.027-13.366-11.513" transform="translate(-156 -95.014)"/><path class="g" d="M947.9,787.7s-.622-13.027-13.366-11.513" transform="translate(-146 -95.014)"/><path class="g" d="M870.481,788.6s-.622-13.027-13.366-11.513" transform="translate(-147.984 -95.014)"/><rect class="g" width="898" height="2" transform="translate(0 690.987)"/></g></svg>