<svg xmlns="http://www.w3.org/2000/svg" xmlns:xlink="http://www.w3.org/1999/xlink" width="1942.648" height="644.123" viewBox="0 0 1942.648 644.123"><defs><style>.a{fill:#7b9db7;}.b{fill:url(#a);}</style><linearGradient id="a" x1="0.044" y1="0.189" x2="1.108" y2="0.197" gradientUnits="objectBoundingBox"><stop offset="0.026" stop-color="#324351"/><stop offset="0.255" stop-color="#41637e"/><stop offset="0.764" stop-color="#7b9db7"/><stop offset="1" stop-color="#ffca18"/></linearGradient></defs><path class="a" d="M0,.041s25.511,109.17,156.438,164.432,273.986,48.745,400.022,70.68,214.855,42.248,230.149,143.8S940.286,733.819,1195.27,611.425s244.79,152.992,418.78-56.993,320.3-109.168,325.78-228.592,1.55-329.37,0-325.795S0,.041,0,.041Z" transform="translate(0 0)"/><path class="b" d="M0,.041s25.511,109.17,156.438,164.432,273.986,48.745,400.022,70.68,214.855,42.248,230.149,143.8S940.286,733.819,1195.27,611.425s244.79,152.992,418.78-56.993,320.3-109.168,325.78-228.592,1.55-329.37,0-325.795S0,.041,0,.041Z" transform="translate(0 0)"/></svg>