<svg id="bg-login-register" xmlns="http://www.w3.org/2000/svg" width="1135.836" height="894.361" viewBox="0 0 1135.836 894.361">
  <defs>
    <style>
      .cls-1 {
        fill: #7b9db7;
      }

      .cls-2 {
        fill: rgba(65,99,126,0.3);
      }

      .cls-3 {
        fill: #3f3d56;
      }

      .cls-4 {
        fill: #0a2132;
      }

      .cls-5 {
        fill: #f2df9f;
      }

      .cls-6 {
        fill: #f2f2f2;
      }

      .cls-7 {
        fill: #2f2e41;
      }

      .cls-8 {
        opacity: 0.1;
      }

      .cls-9 {
        fill: #a0616a;
      }

      .cls-10 {
        fill: #324351;
      }

      .cls-11 {
        fill: #ffb8b8;
      }

      .cls-12 {
        fill: #e6e8ec;
      }

      .cls-13 {
        fill: #ffca18;
      }

      .cls-14 {
        fill: #1c1c22;
      }

      .cls-15 {
        fill: #798b9a;
      }
    </style>
  </defs>
  <g id="triangulos">
    <path id="Caminho_2431" data-name="Caminho 2431" class="cls-1" d="M40.7,552.3c-11.156-17.656-5.326-40.673,13.023-51.408L874.968,20.4c18.349-10.735,42.268-5.125,53.424,12.532l242.477,383.743-.805,492.62-901.844-.127Z" transform="translate(-35.033 -14.953)"/>
    <path id="Caminho_2432" data-name="Caminho 2432" class="cls-2" d="M296.6,971.985,752.911,840.667l449.814,129.974Z" transform="translate(-67.773 -77.624)"/>
    <path id="Caminho_2433" data-name="Caminho 2433" class="cls-2" d="M75.826,660.8l647.013,180.56-458.9,125.6Z" transform="translate(-35.033 -72.624)"/>
    <path id="Caminho_2434" data-name="Caminho 2434" class="cls-2" d="M1192.772,660V970.886L745.579,838.916Z" transform="translate(-57.773 -76.624)"/>
    <path id="Caminho_2435" data-name="Caminho 2435" class="cls-2" d="M946.079,971.953l238.1-177.113,18.592,177.113Z" transform="translate(-67.773 -77.624)"/>
    <path id="Caminho_2436" data-name="Caminho 2436" class="cls-2" d="M269.8,963.651,509.579,828.334l224,143.552Z" transform="translate(-45.827 -77.624)"/>
    <path id="Caminho_2437" data-name="Caminho 2437" class="cls-2" d="M583.079,964.1l241.5-135.763,224,143.552Z" transform="translate(-67.772 -77.624)"/>
    <path id="Caminho_2438" data-name="Caminho 2438" class="cls-2" d="M547.079,963.886H282.534L154.079,768.092Z" transform="translate(-43.033 -69.624)"/>
  </g>
  <g id="vetorLogin" transform="translate(108 89.379)">
    <path id="Caminho_2984" data-name="Caminho 2984" class="cls-3" d="M214.789,711.519c-1.364-2.02-2.705-4.094-3.986-6.164l2.069-1.28c1.264,2.044,2.587,4.09,3.933,6.083Z" transform="translate(-89.413 -50.624)"/>
    <path id="Caminho_2985" data-name="Caminho 2985" class="cls-4" d="M203.469,692.319c-2.256-4.428-4.353-9-6.232-13.6l2.251-.922c1.855,4.532,3.923,9.044,6.149,13.412Zm-11.315-27.66c-1.492-4.735-2.8-9.593-3.9-14.437l2.373-.537c1.08,4.779,2.374,9.571,3.846,14.242Zm-6.589-29.148c-.689-4.909-1.184-9.914-1.47-14.879l2.429-.14c.281,4.9.77,9.838,1.45,14.681Zm.708-29.773-2.431-.057c.117-4.972.44-9.991.96-14.918l2.419.255c-.513,4.861-.832,9.813-.948,14.719Zm3.1-29.311-2.39-.454c.926-4.878,2.068-9.777,3.394-14.56l2.345.65c-1.308,4.719-2.435,9.552-3.349,14.364Zm7.878-28.4-2.282-.842c1.72-4.659,3.658-9.306,5.759-13.81l2.2,1.029c-2.074,4.443-3.985,9.026-5.682,13.623Zm333.127-7.519c-1.9-4.509-4.017-9-6.289-13.343l2.156-1.127c2.3,4.4,4.448,8.954,6.375,13.524ZM209.72,521.3l-2.112-1.207c2.463-4.309,5.139-8.571,7.952-12.669l2,1.377C214.789,512.841,212.15,517.046,209.72,521.3Zm307-6.912c-2.62-4.137-5.444-8.218-8.4-12.129l1.942-1.466c2.992,3.964,5.855,8.1,8.509,12.293Zm-290.307-17.4-1.886-1.537c3.138-3.85,6.473-7.616,9.914-11.2l1.753,1.685C232.8,489.471,229.505,493.188,226.41,496.987Zm272.548-6.132c-3.263-3.657-6.716-7.222-10.266-10.6l1.676-1.763c3.6,3.421,7.1,7.035,10.4,10.741ZM246.843,475.731l-1.609-1.823c3.722-3.285,7.626-6.457,11.605-9.427l1.455,1.949C254.368,469.361,250.516,472.49,246.843,475.731Zm230.75-5.2c-3.816-3.075-7.806-6.029-11.859-8.78l1.366-2.013c4.108,2.789,8.152,5.782,12.019,8.9ZM270.466,458.1l-1.29-2.062c4.212-2.634,8.581-5.123,12.988-7.4l1.115,2.162c-4.348,2.244-8.659,4.7-12.814,7.3ZM453.2,453.977c-4.273-2.412-8.694-4.671-13.139-6.716l1.017-2.21c4.506,2.073,8.986,4.364,13.318,6.807ZM296.65,444.589l-.934-2.246c4.584-1.9,9.3-3.639,14.024-5.155l.743,2.316c-4.658,1.5-9.313,3.208-13.835,5.086Zm129.756-2.934c-4.6-1.671-9.337-3.17-14.067-4.454l.638-2.347c4.795,1.3,9.593,2.821,14.26,4.515ZM324.7,435.58l-.549-2.369c4.83-1.12,9.774-2.052,14.691-2.77l.352,2.407c-4.852.709-9.729,1.629-14.5,2.733Zm73.249-1.652c-4.808-.886-9.722-1.583-14.606-2.071l.242-2.421c4.95.5,9.931,1.2,14.8,2.1Zm-44.085-2.61-.153-2.428c4.947-.312,9.992-.423,14.948-.334l-.044,2.432c-4.9-.09-9.87.021-14.753.329Z" transform="translate(-89.413 -50.624)"/>
    <path id="Caminho_2986" data-name="Caminho 2986" class="cls-3" d="M537.7,561.436c-.651-2.315-1.359-4.648-2.1-6.935l2.313-.754c.755,2.318,1.473,4.684,2.133,7.03Z" transform="translate(-89.413 -50.624)"/>
    <path id="Caminho_2987" data-name="Caminho 2987" class="cls-3" d="M583.68,483.6h-2.432c0-2.434.043-4.9.128-7.34l2.431.084C583.723,478.75,583.68,481.191,583.68,483.6Z" transform="translate(-89.413 -50.624)"/>
    <path id="Caminho_2988" data-name="Caminho 2988" class="cls-4" d="M584.838,461.715l-2.419-.258c.521-4.9,1.226-9.837,2.1-14.678l2.394.43C586.049,451.993,585.353,456.873,584.838,461.715Zm5.178-28.826-2.356-.6c1.217-4.774,2.625-9.56,4.182-14.227l2.308.77c-1.54,4.611-2.93,9.341-4.134,14.058Zm387.928-25.663c-1.818-4.514-3.824-9.018-5.962-13.385l2.185-1.069c2.163,4.419,4.193,8.977,6.034,13.545Zm-378.653-2.132-2.246-.935c1.891-4.545,3.974-9.083,6.192-13.487l2.172,1.094c-2.191,4.352-4.25,8.836-6.119,13.328Zm365.781-24.176c-2.445-4.2-5.075-8.374-7.818-12.4l2.01-1.371c2.776,4.07,5.436,8.29,7.91,12.543Zm-352.6-2-2.089-1.247c2.521-4.224,5.232-8.415,8.056-12.457l1.994,1.393c-2.792,3.995-5.471,8.137-7.962,12.312Zm336.1-22.2c-3.025-3.818-6.222-7.572-9.5-11.157l1.793-1.643c3.321,3.628,6.557,7.426,9.618,11.289Zm-319.318-1.822-1.89-1.532c3.1-3.827,6.382-7.588,9.746-11.18l1.776,1.663c-3.326,3.55-6.567,7.268-9.633,11.049Zm299.539-19.788c-3.536-3.348-7.234-6.61-10.995-9.695l1.542-1.88c3.805,3.121,7.548,6.421,11.125,9.809Zm-279.515-1.6-1.653-1.785c3.612-3.344,7.391-6.6,11.232-9.68l1.521,1.9c-3.8,3.043-7.531,6.262-11.1,9.567Zm256.863-16.986c-3.974-2.811-8.1-5.513-12.262-8.031l1.259-2.081c4.212,2.548,8.386,5.282,12.407,8.126Zm-234.011-1.332-1.383-2c4.049-2.8,8.252-5.481,12.492-7.981l1.235,2.1C680.283,309.777,676.129,312.43,672.128,315.193Zm208.943-13.83c-4.336-2.215-8.806-4.3-13.286-6.193l.948-2.24c4.534,1.917,9.056,4.026,13.445,6.267ZM697.35,300.325l-1.082-2.178c4.406-2.188,8.948-4.243,13.5-6.108l.923,2.251c-4.5,1.843-8.987,3.874-13.341,6.036ZM854.087,289.95c-4.6-1.567-9.325-2.986-14.039-4.218l.615-2.353c4.771,1.246,9.552,2.683,14.207,4.268Zm-129.66-.72-.758-2.311c4.675-1.532,9.468-2.914,14.248-4.107l.589,2.36c-4.724,1.178-9.461,2.544-14.08,4.058Zm101.318-6.69c-4.783-.888-9.66-1.613-14.495-2.156l.271-2.417c4.893.549,9.828,1.283,14.668,2.181Zm-72.9-.4-.417-2.4c4.846-.844,9.787-1.523,14.689-2.019l.245,2.421c-4.844.489-9.729,1.16-14.518,1.994Zm43.795-2.871c-4.871-.2-9.822-.224-14.656-.08l-.074-2.431c4.892-.146,9.9-.121,14.83.081Z" transform="translate(-89.413 -50.624)"/>
    <path id="Caminho_2989" data-name="Caminho 2989" class="cls-3" d="M985.059,428.1c-.651-2.315-1.354-4.652-2.088-6.947l2.316-.741c.744,2.322,1.455,4.687,2.114,7.029Z" transform="translate(-89.413 -50.624)"/>
    <path id="Caminho_2990" data-name="Caminho 2990" class="cls-4" d="M388.023,487.5l250.068,141L342.8,798.752,95.389,652.435Z"/>
    <path id="Caminho_2991" data-name="Caminho 2991" class="cls-4" d="M771.106,277.332l250.064,141L725.881,588.588,478.473,442.271Z"/>
    <path id="Caminho_2992" data-name="Caminho 2992" class="cls-5" d="M388.023,474.2l250.068,141L342.8,785.45,95.389,639.133Z"/>
    <path id="Caminho_2993" data-name="Caminho 2993" class="cls-5" d="M771.106,264.031l250.064,141L725.881,575.286,478.473,428.97Z"/>
    <path id="Caminho_2994" data-name="Caminho 2994" class="cls-4" d="M918.65,274.918a76.724,76.724,0,0,0-30.04-122.744,54.46,54.46,0,1,0-54.545,0,76.72,76.72,0,0,0-30.151,122.615,106.445,106.445,0,1,0,114.737.129Z" transform="translate(-89.413 -50.624)"/>
    <path id="Caminho_2995" data-name="Caminho 2995" class="cls-5" d="M542.65,518c0,56.129-33.363,75.726-74.525,75.726-.953,0-1.907-.014-2.853-.034-1.907-.041-3.8-.13-5.666-.261C422.456,590.8,393.6,570.2,393.6,518c0-54.009,69.017-122.169,74.217-127.225a.006.006,0,0,1,0,0l0,0c.2-.2.3-.295.3-.295S542.65,461.878,542.65,518Z" transform="translate(-89.413 -50.624)"/>
    <path id="Caminho_2996" data-name="Caminho 2996" class="cls-4" d="M465.408,585.138l27.259-38.082-27.327,42.266-.069,4.369c-1.907-.041-3.8-.13-5.666-.261l2.936-56.15-.021-.439.048-.076.281-5.309-27.4-42.369,27.478,38.391L463,528.6l2.216-42.424L441.764,442.4l23.74,36.34,2.312-87.963.007-.3v.295l-.384,69.36,23.349-27.5L467.342,466.1l-.617,37.986,21.805-36.457L466.635,509.68l-.343,21.12,31.642-50.745-31.765,58.111Z" transform="translate(-89.413 -50.624)"/>
    <path id="Caminho_2997" data-name="Caminho 2997" class="cls-5" d="M313.863,619.092c0,56.129-33.363,75.726-74.525,75.726-.953,0-1.907-.014-2.853-.034-1.907-.041-3.8-.13-5.666-.261-37.15-2.627-66.006-23.232-66.006-75.431,0-54.009,69.017-122.169,74.217-127.225a.007.007,0,0,1,0,0l0,0c.2-.2.3-.295.3-.295S313.863,562.969,313.863,619.092Z" transform="translate(-89.413 -50.624)"/>
    <path id="Caminho_2998" data-name="Caminho 2998" class="cls-4" d="M236.622,686.23l27.258-38.082-27.327,42.266-.069,4.369c-1.907-.041-3.8-.13-5.666-.261l2.936-56.15-.021-.439.048-.076.281-5.309-27.4-42.37,27.478,38.391.069,1.125,2.216-42.424-23.452-43.783,23.74,36.34,2.312-87.963.007-.3v.3l-.384,69.36L262,533.722l-23.445,33.473-.617,37.986,21.805-36.457-21.895,42.047-.343,21.12,31.642-50.745-31.765,58.111Z" transform="translate(-89.413 -50.624)"/>
    <path id="Caminho_2999" data-name="Caminho 2999" class="cls-6" d="M684.9,447.219a37.948,37.948,0,1,0,37.948,37.948A37.948,37.948,0,0,0,684.9,447.219Zm2.314,41.187a7.4,7.4,0,1,1,7.4-7.4,7.4,7.4,0,0,1-7.4,7.4Z" transform="translate(-89.413 -50.624)"/>
    <path id="Caminho_3000" data-name="Caminho 3000" class="cls-7" d="M725.128,420.282c-.837.912-16.237,15.563-16.237,15.563s1.53,10.226,18.007,11.5l27.461,2.115s5.191,19.048,11.362,25.136,3.339,6.427,5.655,9.394-.935,3.762,2.581,4.051,10.78-3.963,10.859-7.25a7.67,7.67,0,0,0-2.883-6.008c-.912-.837-3.223-8.841-4.609-10.533s-6.632-22.053-6.632-22.053-5.237-9.85-12.5-10.635-15.336-4.317-15.336-4.317" transform="translate(-89.413 -50.624)"/>
    <path id="Caminho_3001" data-name="Caminho 3001" class="cls-8" d="M725.128,420.282c-.837.912-16.237,15.563-16.237,15.563s1.53,10.226,18.007,11.5l27.461,2.115s5.191,19.048,11.362,25.136,3.339,6.427,5.655,9.394-.935,3.762,2.581,4.051,10.78-3.963,10.859-7.25a7.67,7.67,0,0,0-2.883-6.008c-.912-.837-3.223-8.841-4.609-10.533s-6.632-22.053-6.632-22.053-5.237-9.85-12.5-10.635-15.336-4.317-15.336-4.317" transform="translate(-89.413 -50.624)"/>
    <path id="Caminho_3002" data-name="Caminho 3002" class="cls-9" d="M751.766,361.2s5.779-15.7,9.735-10.7-6.365,13.22-6.365,13.22Z" transform="translate(-89.413 -50.624)"/>
    <path id="Caminho_3003" data-name="Caminho 3003" class="cls-10" d="M721.323,369.4l3.29-1.392s5.974,6.268,8.346,7.434,8.853,3.988,9.715,4.452,10.616-16.794,8.283-19.272c0,0,4.366,1.574,6.354.978,0,0-4.962,24.059-5.717,27.319s-2.518,3.645-5.8,3.764-23.246-5.736-23.246-5.736Z" transform="translate(-89.413 -50.624)"/>
    <path id="Caminho_3004" data-name="Caminho 3004" class="cls-7" d="M772.093,485.975s1.017,3.263.564,3.785-1.78,9.445,3.671,8.861,8.073-2.34,9.453-2.242,21.862-7.049,20.845-10.311-11.258.311-11.258.311-11.633-2.213-14.365-4.765S772.093,485.975,772.093,485.975Z" transform="translate(-89.413 -50.624)"/>
    <path id="Caminho_3005" data-name="Caminho 3005" class="cls-8" d="M772.093,485.975s1.017,3.263.564,3.785-1.78,9.445,3.671,8.861,8.073-2.34,9.453-2.242,21.862-7.049,20.845-10.311-11.258.311-11.258.311-11.633-2.213-14.365-4.765S772.093,485.975,772.093,485.975Z" transform="translate(-89.413 -50.624)"/>
    <path id="Caminho_3006" data-name="Caminho 3006" class="cls-7" d="M761.65,490.776s3.288,14.326,5.7,14.18,19.44-8.433,21.535-10.074c2.69-2.107,2.584-5.832-.5-5.049s-11.821.081-13.306-1.5l-3.817-4.055Z" transform="translate(-89.413 -50.624)"/>
    <path id="Caminho_3007" data-name="Caminho 3007" class="cls-7" d="M727.94,411.183c-.9.848-28.306,24.1-28.306,24.1s2.243,15.029,18.584,17.493,25.775-.613,25.775-.613,3.792,19.375,9.5,25.9,2.863,6.653,4.957,9.78-1.206,3.684,2.28,4.227,11.039-3.168,11.357-6.442a7.671,7.671,0,0,0-2.439-6.2c-.848-.9-2.572-9.051-3.831-10.84S760.81,446.1,760.81,446.1s-4.507-10.2-11.69-11.516-14.982-5.42-14.982-5.42" transform="translate(-89.413 -50.624)"/>
    <circle id="Elipse_570" data-name="Elipse 570" class="cls-9" cx="12.994" cy="12.994" r="12.994" transform="translate(600.308 284.205)"/>
    <path id="Caminho_3008" data-name="Caminho 3008" class="cls-9" d="M695.9,355.935s1.949,7.938-1.019,12.007,19.853,2.132,19.853,2.132-6.177-12.881-3.9-15.876S695.9,355.935,695.9,355.935Z" transform="translate(-89.413 -50.624)"/>
    <path id="Caminho_3009" data-name="Caminho 3009" class="cls-10" d="M725.074,368.416c2.757,2.929,1.817,19.535,1.817,19.535l-1.761,14.83s2.107,2.69,1.418,3.764-1.815,2.134.358,2.637,7.183,1.311,5.58,3.671a22.73,22.73,0,0,1-1.68,1.913c-.511.54-1.119,1.168-1.807,1.867-1.612,1.628-3.662,3.63-5.936,5.741q-.966.9-1.981,1.822c-8.677,7.849-19.467,16.158-21.7,12.17-3.738-6.679-6.336-7.633-6.164-13.319s-4.64-20.276-4.64-20.276-5.595-24.9,2.29-32.324l1.233-1.972a5.151,5.151,0,0,1,5.574-2.281c3.848.919,9.748,2.19,12.3,1.985,3.949-.318,3.083-1.942,3.083-1.942S722.317,365.487,725.074,368.416Z" transform="translate(-89.413 -50.624)"/>
    <path id="Caminho_3010" data-name="Caminho 3010" class="cls-9" d="M737.258,421.532s16.076,3.988,13.718,9.607-16.275-4.65-16.275-4.65Z" transform="translate(-89.413 -50.624)"/>
    <path id="Caminho_3011" data-name="Caminho 3011" class="cls-7" d="M695.523,352.577c.32-.388,0-.954-.275-1.372-1.492-2.241-1.777-5.429-.135-7.562a7.2,7.2,0,0,1,2.373-1.9,11.5,11.5,0,0,1,4.142-1.271,6.413,6.413,0,0,0,2.251-.443c.453-.23,2.592-.979,3.051-1.2,1.009-.48,2.413-.272,3.059-1.184.619-.872.041-2.066-.56-2.95-1.369-2.014-4.831-3.683-7.208-4.212a8.493,8.493,0,0,0-5.358.951,32.717,32.717,0,0,0-5.458,3.415,20.42,20.42,0,0,0-6.047,6.2c-1.4,2.549-1.743,5.869-.156,8.309.331.508.735.967,1.044,1.488.755,1.272.891,2.81,1.425,4.189a7.754,7.754,0,0,0,4.481,4.415c1.625.6,3.624.767,4.584,2.209l.448-3.007a1.734,1.734,0,0,0-.811-2.024l-2.3-1.939a2.63,2.63,0,0,1-1-1.283C692.577,351.334,694.989,353.224,695.523,352.577Z" transform="translate(-89.413 -50.624)"/>
    <path id="Caminho_3012" data-name="Caminho 3012" class="cls-8" d="M718.57,409.8,729,416.632c-2.068,2.091-4.862,4.8-7.917,7.564-2.895-1.558-5.847-3.245-8.487-4.94-9.662-6.2-17.946-21.773-21.658-29.327s-.69-13.372-.69-13.372a28.217,28.217,0,0,1,7.726-2.174C702.809,373.653,718.57,409.8,718.57,409.8Z" transform="translate(-89.413 -50.624)"/>
    <path id="Caminho_3013" data-name="Caminho 3013" class="cls-8" d="M719.948,407.658l10.858,7.106c-.511.541-1.119,1.168-1.807,1.867-1.612,1.628-3.662,3.63-5.936,5.741-3.084-1.647-6.267-3.453-9.09-5.265-9.662-6.2-17.946-21.773-21.658-29.327s6.275-4.845,6.275-4.845-5.182-2.345-.345-3.075S719.948,407.658,719.948,407.658Z" transform="translate(-89.413 -50.624)"/>
    <path id="Caminho_3014" data-name="Caminho 3014" class="cls-10" d="M690.723,375.258s-3.021,5.818.69,13.372,12,23.125,21.658,29.327,23.485,12.31,23.485,12.31,1.311-7.183,3.525-7.992l-21.034-13.768s-15.761-36.152-20.6-35.423A28.214,28.214,0,0,0,690.723,375.258Z" transform="translate(-89.413 -50.624)"/>
    <path id="Caminho_3015" data-name="Caminho 3015" class="cls-3" d="M687.213,523.577A42.575,42.575,0,1,1,729.788,481,42.575,42.575,0,0,1,687.213,523.577Zm0-84.225A41.65,41.65,0,1,0,728.863,481a41.65,41.65,0,0,0-41.65-41.65Z" transform="translate(-89.413 -50.624)"/>
    <path id="Caminho_3016" data-name="Caminho 3016" class="cls-3" d="M687.213,488.868A7.867,7.867,0,1,1,695.08,481a7.867,7.867,0,0,1-7.867,7.867Zm0-14.809A6.942,6.942,0,1,0,694.155,481a6.942,6.942,0,0,0-6.942-6.942Z" transform="translate(-89.413 -50.624)"/>
    <path id="Caminho_3017" data-name="Caminho 3017" class="cls-3" d="M596.874,388.264h-.925V340.6H571.885v-.925h24.989Z"/>
    <rect id="Retângulo_138549" data-name="Retângulo 138549" class="cls-3" width="20.61" height="0.926" transform="translate(631.335 403.536)"/>
    <rect id="Retângulo_138550" data-name="Retângulo 138550" class="cls-10" width="47.203" height="0.926" transform="translate(595.486 371.604)"/>
    <path id="Caminho_3018" data-name="Caminho 3018" class="cls-3" d="M676.242,458.291l-24.718-54.1.842-.385L676.7,457.07l22.256-9.992.38.844Z"/>
    <ellipse id="Elipse_571" data-name="Elipse 571" class="cls-3" cx="12.958" cy="1.851" rx="12.958" ry="1.851" transform="translate(561.24 338.285)"/>
    <path id="Caminho_3019" data-name="Caminho 3019" class="cls-4" d="M298.368,720.161q24.269-3.166,46.668-5.382l-5.744-9.631c2-.556,10.642,5.019,10.642,5.019l-7.3-27.851c9.979,1.12,14.618,29.527,14.618,29.527l11.315-9.461L362.992,713.1c45.695-3.992,85.124-5.222,118.267-4.914l-4.916-8.243c2-.556,10.642,5.019,10.642,5.019l-7.3-27.851c9.979,1.12,14.618,29.527,14.618,29.527l11.315-9.461-5.9,11.35c27.777.774,50.411,2.613,67.871,4.617-4.9-12.81-22.045-25.132-22.045-25.132,13.184,3.442,20.041,9.041,23.588,14.23A190.258,190.258,0,0,0,554.891,624.8s26.582,50.14,22.57,83.554l-.51,5.936c23.149,3.038,34.765,6.059,34.765,6.059Z" transform="translate(-89.413 -50.624)"/>
    <path id="Caminho_3020" data-name="Caminho 3020" class="cls-11" d="M455.185,739.3l-1.672,19.23-7.525,1.672-1.672-5.016s2.926-13.8,2.926-16.3Z" transform="translate(-89.413 -50.624)"/>
    <path id="Caminho_3021" data-name="Caminho 3021" class="cls-11" d="M434.283,725.922s3.344,8.361,4.6,9.2-3.762,11.705-3.762,11.705l-7.525-1.254s2.508-8.779.418-13.8Z" transform="translate(-89.413 -50.624)"/>
    <path id="Caminho_3022" data-name="Caminho 3022" class="cls-7" d="M436.582,730.73s3.135,1.045,4.389,5.643a45.971,45.971,0,0,1,1.254,5.016l-2.09,4.6h-1.254s-2.09,7.107-1.672,9.615-2.926,12.123-8.779,11.705-4.6-7.525-4.6-7.525l2.926-14.631s0-3.762.836-3.762,7.525,1.254,7.525,1.254V743.9S439.926,737.418,436.582,730.73Z" transform="translate(-89.413 -50.624)"/>
    <path id="Caminho_3023" data-name="Caminho 3023" class="cls-7" d="M447.242,756.439v-2.508s8.779,1.254,8.779,2.508v2.926s7.525,15.885-.836,15.885-10.033-3.344-10.033-3.344v-4.6s-4.18-2.09-4.18-3.344,4.079-12.332,4.079-12.332S445.152,758.111,447.242,756.439Z" transform="translate(-89.413 -50.624)"/>
    <circle id="Elipse_572" data-name="Elipse 572" class="cls-11" cx="13.377" cy="13.377" r="13.377" transform="translate(354.485 472.133)"/>
    <path id="Caminho_3024" data-name="Caminho 3024" class="cls-11" d="M462.5,546.376s-1.672,7.943-1.672,8.779-7.943,4.6-7.943,4.6l-7.107-1.254-2.508-7.525s4.18-6.271,4.18-8.779Z" transform="translate(-89.413 -50.624)"/>
    <path id="Caminho_3025" data-name="Caminho 3025" class="cls-1" d="M461.381,551.887s-4.315,7.03-10.586,4.94a8.648,8.648,0,0,1-6.134-8.084l-20.62,7.248,3.762,30.516-3.344,35.533,2.508,4.6h36.787s1.254-6.271,1.672-6.271,1.254-1.254.836-1.672-1.254-.836-.836-2.09.836-15.049.836-15.049L478.8,565.188Z" transform="translate(-89.413 -50.624)"/>
    <path id="Caminho_3026" data-name="Caminho 3026" class="cls-11" d="M477.341,631.446l-7.525,10.033s-1.254-10.451-2.926-10.869l4.18-2.926Z" transform="translate(-89.413 -50.624)"/>
    <path id="Caminho_3027" data-name="Caminho 3027" class="cls-11" d="M393.734,623.5s-11.287,7.107-10.033,11.705,14.213-7.943,14.213-8.361S393.734,623.5,393.734,623.5Z" transform="translate(-89.413 -50.624)"/>
    <path id="Caminho_3028" data-name="Caminho 3028" class="cls-7" d="M463.963,623.5h.836l1.254,5.852a13.968,13.968,0,0,1,3.344,15.049L462.709,688.3l-.836,51-7.525,2.09-8.361-1.672-2.09-68.14s-2.926-6.271-1.672-8.361-.418-1.672-.418-1.672l-8.779,24.246s2.926,7.943,0,10.451c0,0,.418,1.254,0,1.672s-2.508,2.09-1.672,2.926,1.254,0,1.254,1.254,4.18,11.705,2.508,25.082l-5.434,8.361-5.016-2.926-9.2-25.918s2.09-3.762,0-4.6-2.508-1.672-1.672-2.926.836-5.434-.418-7.525,0-5.434,0-5.434l4.6-42.221S415.889,632.7,423,626.848l1.254-4.6S434.7,629.774,463.963,623.5Z" transform="translate(-89.413 -50.624)"/>
    <path id="Caminho_3029" data-name="Caminho 3029" class="cls-7" d="M468.875,525.357s-4.247-9.2-12.388-7.079-12.742,5.309-13.1,8.494a45.449,45.449,0,0,0,.177,7.963s.885-6.548,6.548-5.132,14.511.354,14.511.354l1.416,12.742s1.593-2.3,3.362-.885S474.538,528.188,468.875,525.357Z" transform="translate(-89.413 -50.624)"/>
    <path id="Caminho_3030" data-name="Caminho 3030" class="cls-1" d="M472.533,565.188H478.8a16.991,16.991,0,0,1,5.017,13.377l2.926,24.664s0,12.123-5.016,20.9L476.3,634.582s-2.09-5.852-8.361-5.016l3.344-8.779V618.7a9.14,9.14,0,0,0,1.254-2.09c0-.418-1.672-.418-.418-1.254s2.508-9.2,2.508-9.2a7.062,7.062,0,0,0-.836-2.09c-.418-.418.418-1.672.418-1.672l-.836-1.254-5.434-20.484Z" transform="translate(-89.413 -50.624)"/>
    <path id="Caminho_3031" data-name="Caminho 3031" class="cls-1" d="M431.148,554.737l-7.107,1.254a27.346,27.346,0,0,0-5.852,9.2l-3.344,15.049-5.434,10.869s-6.271,6.271-10.869,20.484l-6.689,12.541,7.107,4.18s19.648-22.992,22.156-30.935l10.869-20.9Z" transform="translate(-89.413 -50.624)"/>
    <path id="Caminho_3032" data-name="Caminho 3032" class="cls-3" d="M491.972,119.719a14.595,14.595,0,1,1,14.6-14.595,14.594,14.594,0,0,1-14.6,14.595Zm0-26.757a12.162,12.162,0,1,0,12.162,12.162,12.162,12.162,0,0,0-12.162-12.162Z" transform="translate(-89.413 -50.624)"/>
    <path id="Caminho_3033" data-name="Caminho 3033" class="cls-3" d="M608.519,268.449H584.51V244.44h24.01ZM586.356,266.6h20.316V246.287H586.357Z" transform="translate(-89.413 -50.624)"/>
    <path id="Caminho_3034" data-name="Caminho 3034" class="cls-3" d="M105.789,483.817,89.413,466.259l17.557-16.376,16.376,17.557ZM92.023,466.35l13.857,14.856,14.856-13.857-13.857-14.856Z" transform="translate(-89.413 -50.624)"/>
    <path id="Caminho_3035" data-name="Caminho 3035" class="cls-3" d="M390.539,620.359l1.743,2.294a.1.1,0,0,1-.019.141l-.057.043,9.081,11.948a1.566,1.566,0,0,1-.3,2.194l-7.466,5.674a1.566,1.566,0,0,1-2.194-.3l-8.762-11.529-.041.031a.071.071,0,0,1-.1-.013l-.992-1.305a.071.071,0,0,1,.014-.1l.041-.031-.374-.492-.042.032a.075.075,0,0,1-.1-.015l-.979-1.288a.074.074,0,0,1,.014-.1l.042-.032-.51-.671-.042.032a.066.066,0,0,1-.092-.013l-.534-.7a.066.066,0,0,1,.012-.093l.042-.032-1.081-1.423a1.565,1.565,0,0,1,.3-2.194l7.466-5.674a1.566,1.566,0,0,1,2.194.3l2.542,3.345.057-.043a.1.1,0,0,1,.141.019Z" transform="translate(-89.413 -50.624)"/>
    <rect id="Retângulo_138551" data-name="Retângulo 138551" class="cls-12" width="1.747" height="0.355" rx="0.146" transform="translate(292.003 570.312) rotate(-37.236)"/>
    <circle id="Elipse_573" data-name="Elipse 573" class="cls-12" cx="0.201" cy="0.201" r="0.201" transform="translate(293.671 568.91)"/>
    <path id="Caminho_3036" data-name="Caminho 3036" class="cls-13" d="M387.39,617.739l13.379,17.6a.994.994,0,0,1-.19,1.392l-7.146,5.432a.99.99,0,0,1-.433.189.934.934,0,0,1-.111.013.994.994,0,0,1-.848-.391l-13.379-17.6a.993.993,0,0,1,.19-1.392l1.07-.813.1.137a.818.818,0,0,0,1.146.156l3.634-2.762a.818.818,0,0,0,.156-1.146l-.1-.137,1.14-.866a.993.993,0,0,1,1.392.19Z" transform="translate(-89.413 -50.624)"/>
    <path id="Caminho_3037" data-name="Caminho 3037" class="cls-11" d="M944.508,319.37v15.2s1.216,17.021,7.9,25.531c0,0,10.942,15.5,12.461,12.158L963,361.248l-6.335-6.014-3.344-18.845-.912-17.021Z" transform="translate(-89.413 -50.624)"/>
    <path id="Caminho_3038" data-name="Caminho 3038" class="cls-11" d="M922.266,406.126v11.246l-9.118,3.344v-13.07Z"/>
    <path id="Caminho_3039" data-name="Caminho 3039" class="cls-11" d="M903.726,404.911l6.078,13.677-8.51,3.647-1.824-13.373Z"/>
    <path id="Caminho_3040" data-name="Caminho 3040" class="cls-14" d="M1008.34,350.676s12.158,109.722,7.6,110.026-13.373,6.079-13.373,2.128-6.991-55.317-6.991-55.317l-6.687-26.443v36.473l6.991,41.336s-6.687,8.814-11.55,3.647L973.995,422.1s-13.677-61.4-13.069-66.259C960.92,355.842,992.226,329.1,1008.34,350.676Z" transform="translate(-89.413 -50.624)"/>
    <path id="Caminho_3041" data-name="Caminho 3041" class="cls-7" d="M1005.9,468.6s2.432-5.167,7.9-1.824l4.559,5.471s11.754,9.734,3.414,11.819c-8.6,2.149-13.747-.137-13.747-.137a6.647,6.647,0,0,0-2.735-.912c-1.216,0-3.951-2.128-3.951-2.736s.912-11.378.912-11.378a1.917,1.917,0,0,1,2.128.3C1005.3,470.124,1005.9,468.6,1005.9,468.6Z" transform="translate(-89.413 -50.624)"/>
    <path id="Caminho_3042" data-name="Caminho 3042" class="cls-7" d="M987.971,466.781s5.775-4.559,8.51.608c0,0,1.722.608,1.925,0s1.722-.912,1.722,2.432,1.65,11.682.131,11.986-3.039,1.216-2.735,2.432-1.65,1.387-8.641,1.083-7.295-3.039-7.295-3.039,0-3.951,1.824-6.079S987.971,466.781,987.971,466.781Z" transform="translate(-89.413 -50.624)"/>
    <path id="Caminho_3043" data-name="Caminho 3043" class="cls-11" d="M976.725,267.7s-1.52,11.246,8.206,15.2-21.579,17.02-24.618,9.422.608-10.03.608-10.03,3.039-3.039.3-11.246Z" transform="translate(-89.413 -50.624)"/>
    <circle id="Elipse_574" data-name="Elipse 574" class="cls-11" cx="13.373" cy="13.373" r="13.373" transform="translate(864.214 198.232)"/>
    <path id="Caminho_3044" data-name="Caminho 3044" class="cls-6" d="M982.5,286.544s-9.118,4.863-17.932,1.216-8.51,12.158-8.51,12.158l4.559,11.854,31.61-3.039L990.1,290.5Z" transform="translate(-89.413 -50.624)"/>
    <path id="Caminho_3045" data-name="Caminho 3045" class="cls-15" d="M977.97,276.144a11.034,11.034,0,0,1,7.57,5.841l14.589,4.559,3.647,5.167L999.521,329.1s7.9,7.6,7.9,11.854,9.726,18.844,4.863,17.021-13.677-8.206-13.677-8.206-22.188.912-29.178,6.991-9.726,4.255-9.726,4.255-7.295-31.61-7.6-36.473-8.814-34.041-8.814-34.041l15.2-8.51,3.871-4.392,10.718,17.157L982.8,282.9S978,279.118,977.97,276.144Z" transform="translate(-89.413 -50.624)"/>
    <path id="Caminho_3046" data-name="Caminho 3046" class="cls-11" d="M1008.34,315.115l1.824,9.726s8.206,30.394,6.991,40.728c0,0,.912,23.1-4.255,20.364s-2.432-19.452-2.432-19.452l-7.295-30.09-3.956-17.629Z" transform="translate(-89.413 -50.624)"/>
    <path id="Caminho_3047" data-name="Caminho 3047" class="cls-15" d="M1000.74,289.887l3.039,1.824s11.55,24.011,8.814,25.835S998,323.32,998,323.32Z" transform="translate(-89.413 -50.624)"/>
    <path id="Caminho_3048" data-name="Caminho 3048" class="cls-15" d="M861.174,239.871l-7.143-.152-1.671,2.888,2.127,29.482,10.942,2.431Z"/>
    <path id="Caminho_3049" data-name="Caminho 3049" class="cls-7" d="M977.889,250.918l2.41-.877s-5.04-5.04-12.052-4.6l1.972-1.972s-4.821-1.753-9.2,2.849a39.15,39.15,0,0,0-6.631,8.466H951.8l1.077,2.155-3.771,2.155,3.87-.387a10.873,10.873,0,0,0,.366,5.581l.877,2.41s3.506-7.012,3.506-7.889V261s2.41-1.972,2.41-3.287l1.315,1.534.657-2.41,8.108,2.41-1.315-1.972,5.04.657-1.972-2.41s5.7,2.849,5.917,5.259a20.334,20.334,0,0,0,1.723,5.553l1.824-2.128S984.244,254.205,977.889,250.918Z" transform="translate(-89.413 -50.624)"/>
    <ellipse id="Elipse_575" data-name="Elipse 575" class="cls-11" cx="1.064" cy="2.735" rx="1.064" ry="2.735" transform="translate(887.768 209.022)"/>
    <path id="Caminho_3050" data-name="Caminho 3050" class="cls-4" d="M1048.15,425.027c-15.778,10.985-20.8,31.05-20.8,31.05s20.56,2.254,36.338-8.731,20.8-31.05,20.8-31.05S1063.92,414.041,1048.15,425.027Z" transform="translate(-89.413 -50.624)"/>
    <path id="Caminho_3051" data-name="Caminho 3051" class="cls-13" d="M1054.39,430.627c-7.979,17.492-26.818,26.028-26.818,26.028s-5.9-19.823,2.075-37.315,26.818-26.028,26.818-26.028S1062.37,413.135,1054.39,430.627Z" transform="translate(-89.413 -50.624)"/>
    <circle id="Elipse_576" data-name="Elipse 576" class="cls-6" cx="3.649" cy="3.649" r="3.649" transform="translate(281.032 542.432)"/>
    <circle id="Elipse_577" data-name="Elipse 577" class="cls-6" cx="12.162" cy="12.162" r="12.162" transform="translate(256.708 505.946)"/>
    <circle id="Elipse_578" data-name="Elipse 578" class="cls-13" cx="23.108" cy="23.108" r="23.108" transform="translate(223.87 439.054)"/>
    <path id="Caminho_3052" data-name="Caminho 3052" class="cls-13" d="M277.562,180.007a83.939,83.939,0,0,0-70.054,95.833c7.119,45.809,113.556,184.1,113.556,184.1s59.45-164.072,52.331-209.881a83.939,83.939,0,0,0-95.833-70.054ZM297.219,306.5A44.068,44.068,0,1,1,334,256.184,44.068,44.068,0,0,1,297.219,306.5Z" transform="translate(-89.413 -50.624)"/>
  </g>
</svg>
