<svg xmlns="http://www.w3.org/2000/svg" width="201.036" height="115" viewBox="0 0 201.036 115"><defs><style>.a,.e{fill:#41637e;}.a{stroke:#41637e;}.b{fill:#7b9db7;stroke:#7b9db7;}.c{fill:#ffca18;stroke:#ffca18;}.d{fill:#324351;stroke:#324351;}.e{font-size:50px;font-family:SegoeUI-Bold, Segoe UI;font-weight:700;}.f{stroke:none;}.g{fill:none;}</style></defs><g class="a" transform="matrix(0.951, -0.309, 0.309, 0.951, 0, 16.499)"><rect class="f" width="22" height="101" rx="11"/><rect class="g" x="0.5" y="0.5" width="21" height="100" rx="10.5"/></g><g class="b" transform="matrix(0.934, 0.358, -0.358, 0.934, 50.933, 36.391)"><rect class="f" width="23" height="75" rx="11.5"/><rect class="g" x="0.5" y="0.5" width="22" height="74" rx="11"/></g><g class="c" transform="translate(43.036)"><circle class="f" cx="12.5" cy="12.5" r="12.5"/><circle class="g" cx="12.5" cy="12.5" r="12"/></g><g class="d" transform="translate(42.992 43.496) rotate(-23)"><rect class="f" width="23" height="75" rx="11.5"/><rect class="g" x="0.5" y="0.5" width="22" height="74" rx="11"/></g><g class="a" transform="matrix(0.978, 0.208, -0.208, 0.978, 85.807, 7.445)"><rect class="f" width="23" height="101" rx="11.5"/><rect class="g" x="0.5" y="0.5" width="22" height="100" rx="11"/></g><text class="e" transform="translate(108.036 102)"><tspan x="0" y="0">odo</tspan></text></svg>