<svg xmlns="http://www.w3.org/2000/svg" width="108.304" height="162" viewBox="0 0 108.304 162"><defs><style>.a,.e{fill:#41637e;}.a{stroke:#41637e;}.b{fill:#7b9db7;stroke:#7b9db7;}.c{fill:#ffca18;stroke:#ffca18;}.d{fill:#324351;stroke:#324351;}.e{font-size:29px;font-family:SegoeUI-Bold, Segoe UI;font-weight:700;}.f{stroke:none;}.g{fill:none;}</style></defs><g transform="translate(-29.964 -89)"><g class="a" transform="matrix(0.951, -0.309, 0.309, 0.951, 29.964, 105.499)"><rect class="f" width="22" height="101" rx="11"/><rect class="g" x="0.5" y="0.5" width="21" height="100" rx="10.5"/></g><g class="b" transform="matrix(0.934, 0.358, -0.358, 0.934, 80.897, 125.391)"><rect class="f" width="23" height="75" rx="11.5"/><rect class="g" x="0.5" y="0.5" width="22" height="74" rx="11"/></g><g class="c" transform="translate(73 89)"><circle class="f" cx="12.5" cy="12.5" r="12.5"/><circle class="g" cx="12.5" cy="12.5" r="12"/></g><g class="d" transform="translate(72.956 132.496) rotate(-23)"><rect class="f" width="23" height="75" rx="11.5"/><rect class="g" x="0.5" y="0.5" width="22" height="74" rx="11"/></g><g class="a" transform="matrix(0.978, 0.208, -0.208, 0.978, 115.771, 96.445)"><rect class="f" width="23" height="101" rx="11.5"/><rect class="g" x="0.5" y="0.5" width="22" height="100" rx="11"/></g></g><text class="e" transform="translate(13.036 155)"><tspan x="0" y="0">Wodo</tspan></text></svg>