<svg xmlns="http://www.w3.org/2000/svg" width="603.485" height="621.05" viewBox="0 0 603.485 621.05"><defs><style>.a{fill:#5eaeff;opacity:0.23;}.b{fill:#fccb27;}.c,.d{fill:#4051dd;}.d{opacity:0.54;}.e,.h{fill:#fff;}.f{fill:#4c997f;}.g{fill:#5dbdf7;}.h{opacity:0.2;}</style></defs><path class="a" d="M649.756,249.757C437.418,131.171,522.845,40.273,407.314,36.75c-61.077-1.862-125.348,20.14-172.142,97.133-83.649,137.633,5.14,232.743,67.042,277.937a400.433,400.433,0,0,1,80.06,78.158c41.813,53.892,122.25,120.861,218.048,15.931C669.757,429.856,862.1,368.343,649.756,249.757Z" transform="translate(671.127 -110.772) rotate(99)"/><g transform="translate(4966.218 -3215.714)"><rect class="b" width="283" height="198" rx="6" transform="translate(-4815 3396)"/><rect class="c" width="107" height="74" rx="2" transform="translate(-4806 3412)"/><rect class="c" width="10" height="37" rx="2" transform="translate(-4658 3541)"/><rect class="c" width="10" height="51" rx="2" transform="translate(-4643 3527)"/><rect class="c" width="10" height="77" rx="2" transform="translate(-4628 3501)"/><ellipse class="d" cx="30.5" cy="29" rx="30.5" ry="29" transform="translate(-4801 3520)"/><rect class="c" width="7" height="49" rx="2" transform="translate(-4642.5 3412.5) rotate(90)"/><rect class="c" width="7" height="69" rx="2" transform="translate(-4622.5 3422.5) rotate(90)"/><rect class="c" width="7" height="49" rx="2" transform="translate(-4642.5 3432.5) rotate(90)"/><rect class="e" width="5" height="25" rx="2" transform="translate(-4666.5 3453.5) rotate(90)"/><rect class="e" width="5" height="15" rx="2" transform="translate(-4676.5 3464.5) rotate(90)"/><rect class="e" width="4" height="62" rx="2" transform="translate(-4734.5 3425.5) rotate(90)"/><rect class="e" width="4" height="47" rx="2" transform="translate(-4749.5 3435.5) rotate(90)"/><rect class="e" width="4" height="53" rx="2" transform="translate(-4743.5 3445.5) rotate(90)"/><rect class="f" width="66" height="67" rx="2" transform="translate(-4855 3511)"/><rect class="g" width="107" height="74" rx="2" transform="translate(-4580 3426)"/><path class="e" d="M17.438.563A17.438,17.438,0,1,0,34.875,18,17.434,17.434,0,0,0,17.438.563Zm0,6.75A6.188,6.188,0,1,1,11.25,13.5,6.188,6.188,0,0,1,17.438,7.313Zm0,24.188a13.474,13.474,0,0,1-10.3-4.8,7.839,7.839,0,0,1,6.926-4.2,1.72,1.72,0,0,1,.5.077,9.309,9.309,0,0,0,2.876.485,9.274,9.274,0,0,0,2.876-.485,1.72,1.72,0,0,1,.5-.077,7.839,7.839,0,0,1,6.926,4.2A13.474,13.474,0,0,1,17.438,31.5Z" transform="translate(-4542.112 3445.5)"/><path class="c" d="M7.5,0,25.359,25.372s-7.477,5.616-15.1,6.823-10.844.014-15.386-2c-5.106-2.258-7.545-6.342-11.661-12.74a32.85,32.85,0,0,1-4.8-12.853Z" transform="translate(-4773.069 3555.578) rotate(-81)"/><path class="e" d="M45,18.563V17.438a1.125,1.125,0,0,0-1.125-1.125H24.188V13.5H29.25a2.25,2.25,0,0,0,2.25-2.25v-9A2.25,2.25,0,0,0,29.25,0H15.75A2.25,2.25,0,0,0,13.5,2.25v9a2.25,2.25,0,0,0,2.25,2.25h5.063v2.813H1.125A1.125,1.125,0,0,0,0,17.438v1.125a1.125,1.125,0,0,0,1.125,1.125H8.438V22.5H4.5a2.25,2.25,0,0,0-2.25,2.25v9A2.25,2.25,0,0,0,4.5,36H15.75A2.25,2.25,0,0,0,18,33.75v-9a2.25,2.25,0,0,0-2.25-2.25H11.813V19.688H33.188V22.5H29.25A2.25,2.25,0,0,0,27,24.75v9A2.25,2.25,0,0,0,29.25,36H40.5a2.25,2.25,0,0,0,2.25-2.25v-9A2.25,2.25,0,0,0,40.5,22.5H36.563V19.688h7.313A1.125,1.125,0,0,0,45,18.563ZM18,9V4.5h9V9ZM13.5,31.5H6.75V27H13.5Zm24.75,0H31.5V27h6.75Z" transform="translate(-4846 3526)"/></g><circle class="e" cx="5.1" cy="5.1" r="5.1" transform="translate(358.246 414.312)"/><circle class="e" cx="2.85" cy="2.85" r="2.85" transform="translate(142.496 488.562)"/><circle class="e" cx="2.85" cy="2.85" r="2.85" transform="translate(432.496 441.562)"/><circle class="e" cx="2.85" cy="2.85" r="2.85" transform="translate(269.496 185.562)"/><circle class="e" cx="2.85" cy="2.85" r="2.85" transform="translate(500.496 310.562)"/><path class="e" d="M429.94,682.21H425.4v-4.54h-1.85v4.54h-4.54v1.85h4.54v4.53h1.85v-4.53h4.54Z" transform="translate(-276.764 -252.728)"/><path class="e" d="M951.97,320.71H949.9v-2.07h-.84v2.07h-2.07v.84h2.07v2.07h.84v-2.07h2.07Z" transform="translate(-547.764 -153.728)"/><path class="e" d="M777.97,444.71H775.9v-2.07h-.84v2.07h-2.07v.84h2.07v2.07h.84v-2.07h2.07Z" transform="translate(-547.764 -153.728)"/><circle class="h" cx="11.93" cy="11.93" r="11.93" transform="translate(217.187 465.102)"/><circle class="e" cx="1.84" cy="1.84" r="1.84" transform="translate(405.296 272.662)"/><path class="e" d="M266.94,590.21H262.4v-4.54h-1.85v4.54h-4.54v1.85h4.54v4.53h1.85v-4.53h4.54Z" transform="translate(97.236 -342.728)"/><path class="e" d="M152.94,592.21H148.4v-4.54h-1.85v4.54h-4.54v1.85h4.54v4.53h1.85v-4.53h4.54Z" transform="translate(112.236 -247.728)"/></svg>