<svg xmlns="http://www.w3.org/2000/svg" width="313.763" height="301.373" viewBox="0 0 313.763 301.373"><defs><style>.a{fill:#5dbdf7;opacity:0.36;}.b{fill:#f2f2f2;}.c{fill:#ffca18;}.d{opacity:0.1;}.e{fill:#575a89;}.f{fill:#2f2e41;}.g{fill:#a0616a;}.h{fill:#d0cde1;}.i{fill:#3f3d56;}</style></defs><path class="a" d="M468.358,146.719c-16.97-62.84-75.606-108.2-144.432-110.021-36.386-.962-74.675,10.4-102.551,50.17-49.833,71.089,3.062,120.214,39.94,143.558a226.66,226.66,0,0,1,47.7,40.369c24.909,27.836,72.829,62.426,129.9,8.229C480.273,239.742,479.661,188.576,468.358,146.719Z" transform="translate(13.374 485.401) rotate(-92)"/><path class="b" d="M607.557,267.847a112.6,112.6,0,0,0-7.917-99.228l-180.48,24.946,172.957-35.982a112.735,112.735,0,0,0-201.1,83.985Z" transform="translate(-343.509 -67.191)"/><path class="b" d="M409.909,519.317c17.41,50.987,61.166,87.16,112.4,87.16,48.076,0,89.567-31.85,108.885-77.9Z" transform="translate(-369.186 -323.191)"/><path class="c" d="M366.666,332.653c0,27.712-42.121,50.176-94.078,50.176-27.913,0-52.986-6.482-70.214-16.781-11.241-6.717-19.144-15.06-22.314-24.28a27.8,27.8,0,0,1-1.551-9.115c0-27.709,77.962-152.7,94.078-50.173S366.666,304.943,366.666,332.653Z" transform="translate(-178.509 -86.929)"/><path class="d" d="M413.758,641.174c0,10.781-54.743,19.523-122.276,19.523a646.622,646.622,0,0,1-69.941-3.508c-18.473-7.078-31.459-15.869-36.669-25.584,20.965-5.941,60.853-9.954,106.61-9.954C359.015,621.651,413.758,630.393,413.758,641.174Z" transform="translate(-171.452 -364.798)"/><g transform="translate(-847 -3358.473)"><path class="e" d="M580.456,403.524c1.742,3.973,1.847,8.219,1.881,12.392q.106,12.769-.462,25.534c-.194,4.357-.461,8.773-2.265,12.927-1.19,2.74-3.026,5.309-4.254,8.039-3.682,8.183-1.67,17.057-1.355,25.669a21.65,21.65,0,0,1-.965,8.3c-1.943,5.339-7.165,9.653-10.81,14.491-3.462,4.595-5.55,9.745-9.685,14.031s-11.291,7.682-18.228,6.367c-5.256-1-8.991-4.4-11.574-7.9-5.637-7.689-7.565-16.546-5.472-25.138,2.594-10.453,10.978-19.726,14-30.116,4.152-14.269-2.159-28.993-1.971-43.581a15.874,15.874,0,0,1,1.254-6.756c1.586-3.332,4.993-5.993,8.14-8.666a121.185,121.185,0,0,0,10.94-10.513c2.253-2.46,5.313-8.789,9.307-9.315C567.857,388.117,578.244,398.479,580.456,403.524Z" transform="translate(479.491 3128.282)"/><g transform="translate(6 -231)"><path class="f" d="M467.463,234.7c-15.317-22.855-45.62-23.92-45.62-23.92s-29.529-3.335-48.471,31.473c-17.656,32.444-42.023,63.769-3.923,71.364l6.882-18.915,4.262,20.324q8.137.517,16.3.246c40.8-1.163,79.661.34,78.41-12.589C473.641,285.493,482.2,256.69,467.463,234.7Z" transform="translate(551.491 3425.282)"/><path class="g" d="M419.581,340.056c-.472,2.869-.983,5.843-2.469,8.2-1.71,2.713-4.5,4.262-6.338,6.858-2.769,3.907-2.928,9.406-2.939,14.464-.01,4.66.071,9.63,2.311,13.5a21.654,21.654,0,0,0,5.828,5.96c8.4,6.567,17.48,13.252,27.609,13.469,4.2.09,8.7-1.167,11.458-4.834a21.025,21.025,0,0,0,2.774-5.741,86.562,86.562,0,0,0,4.653-23.209,31.421,31.421,0,0,0-.886-11.149c-1.23-3.98-3.719-7.254-5.363-11.027a28.031,28.031,0,0,1-2.037-14.526,1.8,1.8,0,0,0-.071-1.053,1.237,1.237,0,0,0-1.089-.512l-20.085-1.677a37.943,37.943,0,0,1-5.576-.74c-1.083-.255-3.942-2.039-4.975-1.565C420.475,327.35,419.973,337.676,419.581,340.056Z" transform="translate(536.491 3389.282)"/><path class="d" d="M419.581,341.2c-.472,2.863-.983,5.83-2.469,8.182-1.71,2.707-4.5,4.253-6.338,6.843-2.769,3.9-2.928,9.385-2.939,14.432-.01,4.649.071,9.608,2.311,13.467a21.628,21.628,0,0,0,5.828,5.947c8.4,6.553,17.479,13.223,27.608,13.439,4.2.09,8.7-1.165,11.458-4.824a20.959,20.959,0,0,0,2.774-5.728,86.2,86.2,0,0,0,4.652-23.157,31.284,31.284,0,0,0-.886-11.124c-1.231-3.971-3.719-7.238-5.363-11a27.912,27.912,0,0,1-2.037-14.494,1.793,1.793,0,0,0-.071-1.05,1.239,1.239,0,0,0-1.089-.511l-20.084-1.673a38.022,38.022,0,0,1-5.576-.738c-1.083-.255-3.942-2.034-4.975-1.561C420.475,328.517,419.973,338.821,419.581,341.2Z" transform="translate(536.491 3388.282)"/><circle class="g" cx="36.475" cy="36.475" r="36.475" transform="translate(938.102 3656.726)"/><path class="f" d="M304.855,178.527,273.28,160.2l-43.6,7.5-9.021,44.144,22.457-.957,6.274-16.218v15.951l10.362-.442,6.015-25.82,3.758,27.486,36.838-.833Z" transform="translate(710.67 3481.037)"/></g><path class="h" d="M429,406.427a19.447,19.447,0,0,0,5.545,4.537,17.07,17.07,0,0,0,6.927,1.35c5.691.164,11.86-.9,15.819-5.092,5.1-5.4,4.935-14.108,8.935-20.408a4.51,4.51,0,0,1,1.289-1.443,4.1,4.1,0,0,1,2.192-.516c5.052-.048,9.452,3.306,13.424,6.5a17.911,17.911,0,0,1,4.725,4.928,16.984,16.984,0,0,1,1.593,5c1.971,9.85,2.609,19.922,3.242,29.955.35,5.542.7,11.09.674,16.643-.086,18.3-4.239,36.287-8.37,54.089-.532,2.294-1.261,4.858-3.3,5.956a7.977,7.977,0,0,1-2.878.719c-11.831,1.423-23.686,2.847-35.6,3.035q-6.972.11-13.938-.346a7.349,7.349,0,0,1-2.348-.419,6.664,6.664,0,0,1-2.56-2.226c-6.443-8.312-6.823-19.8-6.782-30.415q.151-38.916,2.716-77.769c.141-2.138.172-4.734-1.333-6.416C421.692,398.528,425.461,402.635,429,406.427Z" transform="translate(532.491 3132.949)"/><path class="e" d="M397.615,356.008c-1.24,1.949-10.379,6.788-12.143,8.4-9.858,9.025-27.851,8.686-36.867,18.352-3.172,3.4-4.82,7.674-6.032,11.922-1.714,6.008-2.63,12.561.242,18.226,2.763,5.451,8.58,9.22,12.53,14.09,4.336,5.347,6.286,11.839,8.155,18.174,1.38,4.678,2.771,9.471,2.233,14.278-.611,5.465-3.656,10.468-5.453,15.732s-2.108,11.533,2.049,15.669c3.054,3.039,7.843,4.244,12.422,4.921a163.83,163.83,0,0,0,17.7,1.339c5.234.2,11,.24,15.026-2.674a12.368,12.368,0,0,0,4.733-9.617c.179-3.587-.681-7.141-1.219-10.7a109.671,109.671,0,0,1-.952-11.13q-1.207-25.025-.329-50.083a37.1,37.1,0,0,0-.584-10.393c-1.122-4.469-3.9-8.462-6.223-12.568-4.605-8.15-6.784-16.066-6.072-25.124C397.537,355.884,402.026,349.073,397.615,356.008Z" transform="translate(558.035 3147.455)"/><path class="e" d="M352.865,424.288c-3.853,5.429-10.294,10.053-12.486,15.892a24,24,0,0,0-1.089,8.306c-.052,4.2-.086,8.49,1.815,12.49,1.224,2.575,3.214,4.95,4.648,7.474a19.427,19.427,0,0,1,2.615,11.073c-.387,5.229-3,10.3-3.208,15.539-.322,8.231,5.285,15.968,10.756,23.316,2.787-4.687,8.479-8.3,15.553-9.872a35.839,35.839,0,0,1,21.14,1.715c1.443-.9,1.6-2.391,1.654-3.724q.607-14.323,1.17-28.647c.592-14.769,1.156-29.734-3.847-44.112-2.259-6.492-5.774-12.958-12.218-17.994-3.393-2.651-14.912-9.635-20.482-6.665-2.5,1.336-1.919,4.972-2.316,6.813A22.62,22.62,0,0,1,352.865,424.288Z" transform="translate(548.467 3120.282)"/><path class="e" d="M495.707,354.376c1.74,1.671,7.653,2.222,9.867,3.3a36.243,36.243,0,0,0,6.486,2.1,87.113,87.113,0,0,1,22.786,9.771,10.364,10.364,0,0,1,5.918,8.636c1.084,5.016,2.173,10.093,1.93,15.206-.259,5.427-2.008,10.683-3.744,15.867l-6.486,19.372c-4.841,14.46-9.713,29.062-11.075,44.16a97.129,97.129,0,0,0,1,25.081,2.805,2.805,0,0,1-.327,2.429,2.643,2.643,0,0,1-1.588.683c-3.13.457-6.16-1.034-9-2.353a104.6,104.6,0,0,0-27.461-8.395,58.089,58.089,0,0,0,8.529-16.427,93.786,93.786,0,0,0,2.577-11.3l3.017-16.3a150.258,150.258,0,0,0,2.588-18.029,21.12,21.12,0,0,0-.42-6.791,31.8,31.8,0,0,0-2.756-6.125c-4.972-9.663-7.305-20.691-5.349-31.255.856-4.624,2.52-9.253,1.826-13.9-.667-4.468.026-7.941-1.2-12.362C487.789,339.583,492.433,351.233,495.707,354.376Z" transform="translate(508.491 3152.282)"/><path class="i" d="M475.472,360.015H412.284c-5.346,0-9.68,4.8-9.68,10.722v3.926h-.687v8.78h.687v6.146h-.687v5.268h.687v64.786c0,5.921,4.334,10.722,9.68,10.722h63.189c5.345,0,9.679-4.8,9.679-10.721V370.736c0-5.921-4.333-10.721-9.679-10.721Z" transform="translate(532.491 3161.282)"/><path class="g" d="M361.835,520.023a16.036,16.036,0,0,0,6.188,4.991,14.661,14.661,0,0,0,10.637-.231,17.374,17.374,0,0,0,7.676-6.24c3.6-5.158,4.349-11.329,3.9-17.245s-2.008-11.741-2.7-17.642a120.851,120.851,0,0,1-.582-12.913,3.637,3.637,0,0,1,.669-2.611c.8-.883,2.259-1.127,3.554-1.439,7.271-1.751,12.1-7.277,15.557-12.749,2.31-3.654,4.319-7.648,3.874-11.738a10.085,10.085,0,0,0-9.111-8.628c-4.154-.344-7.989,1.8-10.986,4.153-7.559,5.984-12.417,13.855-13.793,22.348-.658,4.159-.469,8.431-1.865,12.468-2.979,8.621-12.3,13.906-16.945,21.663C352.791,502.756,355.616,512.46,361.835,520.023Z" transform="translate(539.515 3118.744)"/><path class="g" d="M548.583,483.028a21.937,21.937,0,0,1-13.03,10.492,21.274,21.274,0,0,1-11.327.581,12.055,12.055,0,0,1-8.3-6.22,14.316,14.316,0,0,1-.935-4.672c-.539-6.948-.331-14.108,2.681-20.6,1.161-2.5,2.728-4.877,3.644-7.45a31.676,31.676,0,0,0,1.372-9.092l.99-18.958a10.4,10.4,0,0,0-.336-4.111c-.987-2.743-4.046-4.526-6.853-6.162-6.779-3.951-13.477-8.561-16.762-14.909a8.977,8.977,0,0,1-1.158-6.176c.926-3.764,5.459-6.2,9.94-7.023a25.816,25.816,0,0,1,17.152,2.739,18.719,18.719,0,0,1,9.5,12.277c.443,2.139.437,4.325.7,6.485.55,4.583,2.286,9,3.372,13.516,2.675,11.122,1.289,22.619,3.934,33.739C545.383,466.787,553.723,472.854,548.583,483.028Z" transform="translate(489.614 3163.488)"/><circle class="h" cx="11.697" cy="11.697" r="11.697" transform="translate(963.874 3551.694)"/></g></svg>