<svg xmlns="http://www.w3.org/2000/svg" width="319.888" height="306.435" viewBox="0 0 319.888 306.435"><defs><style>.a{fill:#5dbdf7;opacity:0.36;}.b{fill:#3f3d56;}.c{opacity:0.1;}.d{fill:#2f2e41;}.e{fill:#f2f2f2;}.f{fill:#ffca18;}.g{fill:#435466;}.h{fill:#ffb9b9;}.i{fill:#d0cde1;}.j{fill:#fff;}</style></defs><path class="a" d="M468.358,146.719c-16.97-62.84-75.606-108.2-144.432-110.021-36.386-.962-74.675,10.4-102.551,50.17-49.833,71.089,3.062,120.214,39.94,143.558a226.66,226.66,0,0,1,47.7,40.369c24.909,27.836,72.829,62.426,129.9,8.229C480.273,239.742,479.661,188.576,468.358,146.719Z" transform="translate(-204.184 29.815) rotate(-8)"/><path class="b" d="M354.306,712.963c0,9.78-40.78,27.972-92.148,27.972S168.5,723.871,168.5,714.091s42.289-8.572,93.657-8.572S354.306,703.184,354.306,712.963Z" transform="translate(-101.418 -434.5)"/><path class="c" d="M354.306,712.963c0,9.78-40.78,27.972-92.148,27.972S168.5,723.871,168.5,714.091s42.289-8.572,93.657-8.572S354.306,703.183,354.306,712.963Z" transform="translate(-101.418 -434.5)"/><ellipse class="b" cx="93" cy="19" rx="93" ry="19" transform="translate(66.888 258.856)"/><path class="d" d="M594.859,440.238v45.855l6.8,12.5.517.951h26.82l.542-59.306Z" transform="translate(-384.754 -226.635)"/><path class="c" d="M594.859,440.238v43.777l7.893,16.274V440.238Z" transform="translate(-385.147 -226.174)"/><path class="c" d="M673.033,491.5h8.714l3.631-2.276H669.039Z" transform="translate(-445.112 -264.857)"/><path class="c" d="M673.033,491.5h8.714l3.631-2.276H669.039Z" transform="translate(-445.112 -253.857)"/><path class="c" d="M673.033,491.5h8.714l3.631-2.276H669.039Z" transform="translate(-445.112 -243.857)"/><path class="c" d="M673.033,491.5h8.714l3.631-2.276H669.039Z" transform="translate(-445.112 -231.857)"/><path class="d" d="M123.682,434.639v45.808l-8.328,12.487-.634.95H81.859L81.2,434.639Z" transform="translate(0.554 -219.574)"/><path class="c" d="M237.672,434.639v45.2l-6.441,13.253V434.639Z" transform="translate(-113.436 -219.229)"/><path class="c" d="M673.578,491.5h9.9l4.127-2.276h-18.57Z" transform="translate(-578.112 -264.857)"/><path class="c" d="M673.578,491.5h9.9l4.127-2.276h-18.57Z" transform="translate(-578.112 -254.857)"/><path class="c" d="M673.578,491.5h9.9l4.127-2.276h-18.57Z" transform="translate(-578.112 -244.857)"/><path class="d" d="M363.439,403.587v4.541H63v-6.558l27.922-13.117H338.868Z" transform="translate(-43.552 -191.948)"/><path class="c" d="M673.578,491.5h9.9l4.127-2.276h-18.57Z" transform="translate(-578.112 -234.857)"/><path class="c" d="M363.439,427v4.861H63v-7.021Z" transform="translate(-43.552 -216.453)"/><path class="b" d="M433.9,408.475V410.2H362.071v-1.379l.1-.345,1.77-6.207h68.491Z" transform="translate(-228.472 -203.857)"/><path class="b" d="M754.259,439.782a2.241,2.241,0,0,1-.895,1.421c-2.059,1.666-6.246-.444-6.246-.444s-3.226-.889-3.226-3.221a2.708,2.708,0,0,1,.283-.272c.866-.741,3.736-2.57,8.825.077a2.374,2.374,0,0,1,.967,1.026A2.329,2.329,0,0,1,754.259,439.782Z" transform="translate(-531.612 -236.5)"/><ellipse class="e" cx="1.169" cy="0.437" rx="1.169" ry="0.437" transform="translate(218.32 201.002)"/><path class="c" d="M433.9,415.2v2H362.071v-1.6l.1-.4Z" transform="translate(-228.472 -210.857)"/><g transform="translate(-71.112 -2861.857)"><rect class="b" width="99.18" height="67.885" rx="8" transform="translate(280.824 2981.672)"/><g transform="translate(-222 131)"><rect class="e" width="85.71" height="55.734" transform="translate(510.059 2855.984)"/><path class="b" d="M681.505,364.931v5.528a3.345,3.345,0,0,1-3.488,3.183H585.811a3.345,3.345,0,0,1-3.487-3.184v-5.528Z" transform="translate(-79.5 2546.357)"/><path class="b" d="M689.268,388.885l-1.489,10.151s-7.332,4.158-2.177,4.28,29.441,0,29.441,0,4.7,0-2.749-4.4l-1.489-10.64Z" transform="translate(-145.537 2528.357)"/><path class="c" d="M684.568,401.35a20.445,20.445,0,0,1,3.214-1.989l1.489-8.889,21.538.019,1.489,8.763a19.731,19.731,0,0,1,3.442,2.117c.956-.2,2-.962-3.442-3.78l-1.489-9.317-21.538.535-1.489,8.889S681.621,400.758,684.568,401.35Z" transform="translate(-145.543 2530.357)"/><circle class="e" cx="1.823" cy="1.823" r="1.823" transform="matrix(-1, 0.017, -0.017, -1, 554.855, 2918.715)"/><rect class="f" width="16" height="7" transform="translate(574 2867)"/><rect class="f" width="24" height="7" transform="translate(566 2877)"/></g></g><path class="c" d="M755.206,439.174c-2.458,1.315-4.648,1.413-6.9-.767a4.057,4.057,0,0,0-2.937-1.35c.844-.623,3.643-2.162,8.606.065a2.163,2.163,0,0,1,.943.863A1.741,1.741,0,0,1,755.206,439.174Z" transform="translate(-532.612 -236.5)"/><rect class="b" width="24" height="29.828" transform="translate(82.888 168.442)"/><rect class="e" width="18.31" height="23.536" transform="translate(85.234 171.089)"/><path class="g" d="M346.991,363.357l-1.728,1.412-1.728-1.412h-2.761l4.489,3.667,4.489-3.667Z" transform="translate(-255.295 -192.066)"/><path class="g" d="M346.991,363.357l-1.728,1.412-1.728-1.412h-2.761l4.489,3.667,4.489-3.667Z" transform="translate(-247.296 -192.066)"/><path class="g" d="M346.991,363.357l-1.728,1.412-1.728-1.412h-2.761l4.489,3.667,4.489-3.667Z" transform="translate(-251.296 -188.066)"/><path class="f" d="M981.291,614.523c0,10.806-6.972,14.579-15.572,14.579s-15.572-3.773-15.572-14.579,15.572-24.554,15.572-24.554S981.291,603.717,981.291,614.523Z" transform="translate(-691.403 -371.061)"/><path class="b" d="M814.57,583.358l13.9-11.816L814.621,581.86l.151-4.294,9.583-8.549-9.543,7.412.27-7.724,10.262-6.806-10.22,5.591.169-14.163-1.015,17.946-10.392-7.388,10.266,8.9-.972,8.626-.029-.229-12.028-7.806,11.991,8.615-.121,1.079-.022.016.01.089-2.467,11.511h3.3l.4-.93,11.962-8.594-11.933,7.745Z" transform="translate(-541.112 -330.857)"/><path class="d" d="M800.042,657.57h-10.8l-2.792-13.407h15.782Z" transform="translate(-520.675 -386.795)"/><path class="h" d="M534.957,208.793v25.979h13.8s-1.78-21.649-.89-28.143Z" transform="translate(-385.154 -69.5)"/><path class="i" d="M526.527,264.612s-20.57-12.51-20.57-13.373-2.092-6.471-3.486-6.471-13.248-4.745-19.872,2.157l-.7,5.608L456.451,273.24l6.973,31.491s4.532,6.039,3.138,10.353,1.046,26.315,1.046,26.315l54.736-2.157V309.907a79.254,79.254,0,0,1,2.789-9.059c1.046-2.157,0-8.628,0-8.628l8.367-12.942S532.454,267.2,526.527,264.612Z" transform="translate(-336.612 -96.5)"/><path class="c" d="M646.059,332.175l2.92-4.768s4.122,32.652,1.374,35.831-13.618,4.368-13.618,4.368l-.122-23.728Z" transform="translate(-458.269 -155.708)"/><path class="i" d="M652.1,314.323l5.343,3.782s4.932,32.875,1.644,36.076-16.293,4.4-16.293,4.4l-.146-23.89Z" transform="translate(-462.153 -146.68)"/><ellipse class="h" cx="16.247" cy="18.247" rx="16.247" ry="18.247" transform="translate(140.28 107.791)"/><path class="d" d="M537.993,144.3a13.946,13.946,0,0,0-4.674.641,18.319,18.319,0,0,0-3.33,1.7l-7.026,4.205a3.163,3.163,0,0,0-1.983,2.951l-.878,6.328a7.946,7.946,0,0,0,.317,4.749,13.28,13.28,0,0,0,2.774,3A10.858,10.858,0,0,1,526.2,173.5c.5,2.642.181,5.824,2.353,7.51a7.594,7.594,0,0,0,4.288,1.171,66.466,66.466,0,0,0,12.358-.458,5.064,5.064,0,0,0,1.867-.5,4.987,4.987,0,0,0,1.638-1.875c1.569-2.571,3.186-5.306,3.169-8.287-.008-1.475-.4-3.059.335-4.353a17.1,17.1,0,0,1,1.264-1.58,8.481,8.481,0,0,0,1.237-4.321c.474-4.809-.022-8.469-3.7-11.857C547.573,145.782,542.681,144.33,537.993,144.3Z" transform="matrix(0.999, 0.035, -0.035, 0.999, -373.566, -56.322)"/><path class="c" d="M443.9,323.288l.91-9.972s-5.259,45.994-4.652,51.286,5.057,13.432,5.664,13.839,6.271-35,6.271-35Z" transform="translate(-322.072 -139.5)"/><path class="i" d="M440.688,310.3l-3.223,1.254s-4.929,47.241-4.36,52.675,4.74,13.8,5.308,14.214,5.877-35.953,5.877-35.953Z" transform="translate(-319.265 -134.5)"/><g transform="translate(-308.112 -2733.857)"><path class="d" d="M466.093,576.505l11.142,55.957h5.305L471.929,575.3Z" transform="translate(25 2388)"/><path class="d" d="M408.708,580.038l10.381,67.789h6.921L419.781,578.1Z" transform="translate(72 2380)"/><path class="d" d="M277.241,569.7l-9.895,52.759h4.947l9.483-51.894Z" transform="translate(162.263 2400)"/><path class="d" d="M352.582,578.1l-2.658,52.378h7.089L362.33,578.1Z" transform="translate(89 2397.691)"/><path class="f" d="M443.426,487.348s-9.557-52.88,17.323-54.363,65.109,0,65.109,0,22.1-1.483,15.531,54.363c0,0,5.973,16.309-47.786,14.826S443.426,487.348,443.426,487.348Z" transform="translate(-27.067 2490.445)"/></g><path class="g" d="M346.991,363.357l-1.728,1.412-1.728-1.412h-2.761l4.489,3.667,4.489-3.667Z" transform="translate(444.231 558.315) rotate(180)"/><path class="g" d="M346.991,363.357l-1.728,1.412-1.728-1.412h-2.761l4.489,3.667,4.489-3.667Z" transform="translate(436.231 558.315) rotate(180)"/><path class="g" d="M346.991,363.357l-1.728,1.412-1.728-1.412h-2.761l4.489,3.667,4.489-3.667Z" transform="translate(440.231 554.315) rotate(180)"/><circle class="j" cx="5.47" cy="5.47" r="5.47" transform="translate(92.318 39.933)"/><path class="j" d="M146.29,79.4h-4.86V74.54h-1.99V79.4h-4.86v1.99h4.86v4.86h1.99V81.39h4.86Z" transform="translate(80.888 10.143)"/><path class="j" d="M59.23,159.07H54.36V154.2H52.38v4.87H47.51v1.98h4.87v4.87h1.98v-4.87h4.87Z" transform="translate(33.888 -15.857)"/><path class="j" d="M11.71,295.17H6.85V290.3H4.87v4.87H0v1.98H4.87v4.86H6.85v-4.86h4.86Z" transform="translate(33.888 -15.857)"/><path class="d" d="M140.393,76.781H137.98V74.54h-.988v2.241H134.58V77.7h2.412V79.94h.988V77.7h2.412Z" transform="translate(-0.112 -8.857)"/><path class="d" d="M140.393,76.781H137.98V74.54h-.988v2.241H134.58V77.7h2.412V79.94h.988V77.7h2.412Z" transform="translate(-88.112 23.143)"/><circle class="j" cx="1.97" cy="1.97" r="1.97" transform="translate(97.318 103.933)"/><circle class="j" cx="1.97" cy="1.97" r="1.97" transform="translate(196.318 59.933)"/></svg>