<svg xmlns="http://www.w3.org/2000/svg" width="366.09" height="337.988" viewBox="0 0 366.09 337.988"><defs><style>.a{fill:#5dbdf7;opacity:0.36;}.b{fill:#2f2e41;}.c{fill:#ffca18;}.d{fill:#d0cde1;}.e{fill:#3f3d56;}.f,.m{fill:#fff;}.g{fill:#f2f2f2;}.h{opacity:0.1;}.i{fill:#320c0c;}.j{fill:#ffb8b8;}.k,.m{opacity:0.2;}.l{fill:#c4e7fc;opacity:0.46;}.n{fill:#538ed1;}</style></defs><path class="a" d="M468.358,146.719c-16.97-62.84-75.606-108.2-144.432-110.021-36.386-.962-74.675,10.4-102.551,50.17-49.833,71.089,3.062,120.214,39.94,143.558a226.66,226.66,0,0,1,47.7,40.369c24.909,27.836,72.829,62.426,129.9,8.229C480.273,239.742,479.661,188.576,468.358,146.719Z" transform="translate(426.593 -108.468) rotate(106)"/><path class="b" d="M873.235,212.061c7.884,13.491,6.139,30.967,6.139,30.967s-14.527-4.4-22.411-17.887-6.139-30.967-6.139-30.967S865.351,198.57,873.235,212.061Z" transform="translate(-587.735 -128.671)"/><path class="c" d="M907.838,207.724c1.619,22.62,20.2,39.9,20.2,39.9s15.959-19.4,14.34-42.017-20.2-39.9-20.2-39.9S906.218,185.1,907.838,207.724Z" transform="matrix(0.899, 0.438, -0.438, 0.899, -446.193, -495.36)"/><path class="d" d="M583.469,116l163.721,77.009a7.173,7.173,0,0,1,4.247,6.959l-9.512,131.82A3.574,3.574,0,0,1,740,334.665a4.069,4.069,0,0,1-3.629.084L568.913,254.8l8.6-135.581a3.832,3.832,0,0,1,2.054-3.109,4.367,4.367,0,0,1,3.905-.1Z" transform="translate(-432.735 -74.671)"/><path class="e" d="M587.78,122.357,744.118,193.92a6.648,6.648,0,0,1,4.055,6.467l-9.083,122.5a3.319,3.319,0,0,1-1.842,2.673,3.982,3.982,0,0,1-3.465.078l-159.9-74.3,8.209-125.993a3.558,3.558,0,0,1,1.961-2.889A4.273,4.273,0,0,1,587.78,122.357Z" transform="translate(-434.027 -74.457)"/><path class="f" d="M605.476,146.05l147.848,66.8a6.2,6.2,0,0,1,3.835,6.037l-8.59,114.35a3.1,3.1,0,0,1-1.742,2.5,3.809,3.809,0,0,1-3.277.073L592.331,266.451l7.763-117.613a3.32,3.32,0,0,1,1.855-2.7,4.089,4.089,0,0,1,3.527-.09Z" transform="translate(-447.735 -89.724)"/><rect class="c" width="1.419" height="130.118" transform="translate(168.152 157.642) rotate(-66)"/><rect class="c" width="1.418" height="130.759" transform="translate(167.859 150.245) rotate(-66)"/><rect class="c" width="1.42" height="74.9" transform="translate(193.088 177.879) rotate(-65)"/><path class="g" d="M369.06,100.8,364,113.058,406.709,135.9,421.1,93" transform="translate(-223.614 -25.091)"/><path class="c" d="M400.922,87.637,418.116,48.71,378.6,30,362,67.98Z" transform="translate(-221.614 18.909)"/><rect class="f" width="1.42" height="26.9" transform="matrix(0.455, -0.89, 0.89, 0.455, 153.657, 74.655)"/><rect class="f" width="1.42" height="31.9" transform="matrix(0.455, -0.89, 0.89, 0.455, 149.657, 78.655)"/><path class="d" d="M286.722,505.016l157.484,73.053a11.292,11.292,0,0,0,9.445-.011l116.5-54.474c1.366-1.258,1.175-3.123.738-4.523a9.64,9.64,0,0,0-.861-1.955l-15.876-7.691L420.675,448.071l-7.975-3.9a15.892,15.892,0,0,0-13.716-.051L286.673,497.858a3.88,3.88,0,0,0,.049,7.159Z" transform="translate(-266.716 -262.299)"/><path class="h" d="M510.86,616.979l-46.155-23.77a6.378,6.378,0,0,0-5.981.069L431.95,607.857a1.969,1.969,0,0,0,.04,3.465l47.06,24.185a5.243,5.243,0,0,0,5.017-.118l26.881-15.434a1.7,1.7,0,0,0-.087-2.975Z" transform="translate(-348.738 -353.963)"/><path class="h" d="M608.837,531.054,559.377,557.76a3.966,3.966,0,0,1-3.7.038L415.93,485.97a2.433,2.433,0,0,1,.018-4.32l48.3-24.3a5.162,5.162,0,0,1,4.68.017l139.888,71.638a1.161,1.161,0,0,1,.022,2.046Z" transform="translate(-332.427 -271.671)"/><path class="h" d="M286.761,592.653l160.195,74.968a11.394,11.394,0,0,0,9.608-.012l118.508-55.9c1.39-1.291,1.2-3.2.751-4.642L457.669,664.134a11.01,11.01,0,0,1-9.349.074l-163.95-75.9A4.036,4.036,0,0,0,286.761,592.653Z" transform="translate(-268.711 -352.69)"/><g transform="translate(-1170.614 -3359.081)"><path class="i" d="M293.426,662.62s5.7,9.189,9.362,9.189,3.256,6.008,2.442,7.422-2.849,4.595.407,9.189a4.985,4.985,0,0,1,.188,5.115c-2.091,4.734-10.226,3.3-9.967-1.766q0-.084.01-.169c.407-5.655-2.849-14.491-6.106-16.611s-6.106-7.775-6.106-7.775Z" transform="translate(910.809 2968.41)"/><path class="i" d="M370.273,657.46s-4.776,8.131-7.847,8.131-2.729,5.317-2.047,6.568,2.388,4.066-.341,8.131a4.622,4.622,0,0,0-.157,4.526c1.753,4.189,8.572,2.92,8.354-1.562q0-.074-.009-.149c-.341-5,2.388-12.822,5.118-14.7s5.118-6.88,5.118-6.88Z" transform="translate(873.879 2976.41)"/><path class="b" d="M274.743,542.961l1.635,5.96s23.983,13.295,21.8,28.882-12.809,39.885-14.444,38.968S273.38,613.1,273.107,605.31s6.268-21.547,6.268-21.547l-8.993-13.753-13.087-.458-11.168,14.212s11.719,17.421,6.541,24.3-12.809,11.461-13.9,8.71-13.354-43.552-11.446-47.22S248.58,552.13,248.58,552.13l5.178-12.378,20.167-1.834Z" transform="translate(961.058 3035.496)"/><path class="e" d="M352.627,428.74s-19.337-11.462-28.419.646S348.526,437.508,352.627,428.74Z" transform="translate(886.332 3105.41)"/><path class="j" d="M361.048,591.7v4.359s1.943,10.026-4.274,9.59-2.331-12.205-2.331-12.205l.389-3.923Z" transform="translate(878.879 3008.41)"/><path class="j" d="M324.655,594.679s5.313,12.164,0,13.222-9.178-6.875-9.178-8.991S324.655,594.679,324.655,594.679Z" transform="translate(889.885 3007.41)"/><path class="e" d="M293.12,440.737s-9.872,0-9.477,3.706,13.425,67.441,13.425,67.441,5.528-4.817,10.267-3.706Z" transform="translate(908.879 3098.41)"/><path class="e" d="M367.955,443.317s9.149,1.873,9.149,7.491-13.174,59.551-15,59.551-8.783-1.124-8.783-3S367.955,443.317,367.955,443.317Z" transform="translate(878.896 3095.41)"/><path class="b" d="M315.633,364.258c6.049-10.194,18.016-10.669,18.016-10.669s11.662-1.487,19.142,14.038c6.973,14.471,16.6,28.443,1.549,31.83l-2.718-8.437-1.683,9.065a59.029,59.029,0,0,1-6.438.11c-16.114-.519-31.46.152-30.966-5.615C313.193,386.914,309.812,374.066,315.633,364.258Z" transform="translate(890.879 3128.41)"/><path class="j" d="M346.768,402.864s-2.538,16.971,2.538,19.029-10.153,10.8-10.153,10.8h-8.63l-5.584-11.829s5.077-9.257,2.031-18S346.768,402.864,346.768,402.864Z" transform="translate(887.615 3112.41)"/><path class="h" d="M348.266,402.749s-2.713,16.468,2.713,18.464c2.029.747,1.023,2.4-1.169,4.3-3.3,2.859-9.681,6.184-9.681,6.184h-9.223l-5.968-11.478s5.425-8.982,2.17-17.466S348.266,402.749,348.266,402.749Z" transform="matrix(0.998, -0.07, 0.07, 0.998, 857.731, 3138.035)"/><ellipse class="j" cx="1.72" cy="3.44" rx="1.72" ry="3.44" transform="translate(1206.506 3505.836)"/><ellipse class="j" cx="1.72" cy="3.44" rx="1.72" ry="3.44" transform="translate(1239.247 3507.836)"/><ellipse class="j" cx="16.94" cy="17.44" rx="16.94" ry="17.44" transform="translate(1207.657 3490.765)"/><path class="b" d="M94.468,249.281l12.964-5.7,17.9,2.332,3.7,13.736-9.22-.3-2.576-5.047v4.963l-4.255-.137-2.469-8.035-1.543,8.553L93.85,259.39Z" transform="translate(1114 3245.99)"/><path class="d" d="M348.766,429.557s-6.165,5.542-7.286,6.466-6.165,6-16.814-1.386-11.77,1.386-11.77,1.386v55.424s8.967-3.233,16.253,0,22.418-.924,22.418-.924l2.8-57.272Z" transform="translate(890.128 3102.843)"/><path class="e" d="M300.456,429.557s-8.656.826-9.069,1.652-12.992,4.338-12.167,8.056,12.167,36.973,7.218,43.169-13.2,14.872-10.311,15.7,7.836-1.239,12.785,0,16.5-9.088,15.26-20.242S304.164,432.449,300.456,429.557Z" transform="translate(915.063 3102.873)"/><path class="k" d="M307.723,458.054l11.094,51.726S315.271,461.038,307.723,458.054Z" transform="translate(886.879 3084.41)"/><path class="e" d="M356.924,428.8s4.619-1.746,8.573,0,17.793,10.479,16.8,14.408-13.839,31.436-4.942,44.535,10.379,16.591,10.379,16.591L365.991,494.3s-16.8-9.169-15.321-14.845S356.924,428.8,356.924,428.8Z" transform="translate(874.879 3104.41)"/><path class="k" d="M382.133,468.687l-18.5,56.081S372.269,475.7,382.133,468.687Z" transform="translate(868.576 3077.322)"/></g><ellipse class="c" cx="28.243" cy="27.243" rx="28.243" ry="27.243" transform="translate(309.603 114.771)"/><path class="e" d="M294.985,662.144c-17.341,0-31.4-13.179-31.4-29.436s14.058-29.436,31.4-29.436,31.4,13.179,31.4,29.436C326.364,648.957,312.318,662.125,294.985,662.144Zm0-58.195c-16.942,0-30.677,12.876-30.677,28.759s13.735,28.759,30.677,28.759,30.677-12.876,30.677-28.759C325.643,616.832,311.919,603.967,294.985,603.949Z" transform="translate(21.971 -497.809)"/><circle class="l" cx="5.1" cy="5.1" r="5.1" transform="translate(262.632 212.945)"/><circle class="f" cx="2.85" cy="2.85" r="2.85" transform="translate(46.882 287.195)"/><path class="f" d="M429.94,682.21H425.4v-4.54h-1.85v4.54h-4.54v1.85h4.54v4.53h1.85v-4.53h4.54Z" transform="translate(-372.377 -454.095)"/><circle class="m" cx="11.93" cy="11.93" r="11.93" transform="translate(121.572 263.735)"/><path class="n" d="M152.94,592.21H148.4v-4.54h-1.85v4.54h-4.54v1.85h4.54v4.53h1.85v-4.53h4.54Z" transform="translate(15.623 -464.095)"/><path class="n" d="M157.712,594.795H151.19V587.67h-2.658v7.125H142.01v2.9h6.522v7.109h2.658V597.7h6.522Z" transform="translate(25.851 -473.312)"/><path class="n" d="M148.981,590.58h-2.9v-2.91h-1.18v2.91h-2.9v1.186h2.9v2.9h1.18v-2.9h2.9Z" transform="translate(24.623 -455.095)"/></svg>