<svg xmlns="http://www.w3.org/2000/svg" xmlns:xlink="http://www.w3.org/1999/xlink" width="605.569" height="587.171" viewBox="0 0 605.569 587.171"><defs><style>.a{fill:#5eaeff;opacity:0.23;}.b{fill:#fbcd31;}.c{fill:#5dbdf7;opacity:0.89;}.d{fill:url(#a);}.e{fill:#fff;}.f{fill:#6ac2f7;}.g{fill:#3f3d56;}.h{fill:url(#b);}.i{opacity:0.6;}.j{fill:#47e6b1;}.k{fill:url(#c);}.l{fill:#ffca18;}</style><linearGradient id="a" x1="0.5" x2="0.5" y2="1" gradientUnits="objectBoundingBox"><stop offset="0" stop-color="#63d4f6"/><stop offset="0.87" stop-color="#4c3f5e"/><stop offset="1" stop-color="#38213f"/></linearGradient><linearGradient id="b" x1="-11.166" y1="1.736" x2="-11.166" y2="1.122" gradientUnits="objectBoundingBox"><stop offset="0" stop-color="gray" stop-opacity="0.251"/><stop offset="0.54" stop-color="gray" stop-opacity="0.122"/><stop offset="1" stop-color="gray" stop-opacity="0.102"/></linearGradient><linearGradient id="c" x1="-15.963" y1="-0.371" x2="-15.963" y2="-0.985" xlink:href="#b"/></defs><g transform="translate(0 0)"><path class="a" d="M649.756,249.757C437.418,131.171,522.845,40.273,407.314,36.75c-61.077-1.862-125.348,20.14-172.142,97.133-83.649,137.633,5.14,232.743,67.042,277.937a400.433,400.433,0,0,1,80.06,78.158c41.813,53.892,122.25,120.861,218.048,15.931C669.757,429.856,862.1,368.343,649.756,249.757Z" transform="translate(-204.008 54.636) rotate(-7)"/><g transform="translate(152.825 97.043)"><path class="b" d="M8,0H143a8,8,0,0,1,8,8V236a0,0,0,0,1,0,0H0a0,0,0,0,1,0,0V8A8,8,0,0,1,8,0Z" transform="translate(73.839 48.39)"/><path class="c" d="M0,0H152a0,0,0,0,1,0,0V33a6,6,0,0,1-6,6H6a6,6,0,0,1-6-6V0A0,0,0,0,1,0,0Z" transform="translate(73.839 284.39)"/><g transform="translate(52.474 2.568)"><path class="d" d="M93.5,46.609c0,35.085-44.5,65.158-44.5,65.158S4.5,81.694,4.5,46.609C4.5,21.7,24.423,1.5,49,1.5S93.5,21.7,93.5,46.609Z" transform="translate(-4.5 -1.5)"/><path class="e" d="M44.4,26.561c0,8.87-6.917,16.061-15.449,16.061S13.5,35.431,13.5,26.561,20.417,10.5,28.949,10.5,44.4,17.691,44.4,26.561Z" transform="translate(15.072 12.357)"/></g><path class="e" d="M26.582,17.707c0,3.98-2.929,7.207-6.541,7.207S13.5,21.687,13.5,17.707,16.429,10.5,20.041,10.5,26.582,13.727,26.582,17.707Z" transform="translate(127.93 284.258)"/><ellipse class="f" cx="8.258" cy="7.758" rx="8.258" ry="7.758" transform="translate(192.305 168.622)"/><path class="g" d="M493.488,224.7a8.258,8.258,0,1,1,8.257,8.1A8.177,8.177,0,0,1,493.488,224.7Zm.971,0a7.287,7.287,0,1,0,7.285-7.143,7.215,7.215,0,0,0-7.285,7.143Z" transform="translate(-296.501 -48.68)"/><rect class="h" width="64.38" height="104.76" transform="matrix(0.017, -1, 1, 0.017, 193.349, 149.631)"/><rect class="e" width="60.09" height="101.21" transform="matrix(0.017, -1, 1, 0.017, 194.686, 146.973)"/><g class="i" transform="matrix(0.407, -0.914, 0.914, 0.407, 190.729, 112.143)"><rect class="j" width="12.88" height="9.53" transform="translate(18.756 15.609) rotate(-113.45)"/><rect class="j" width="49.44" height="3.09" transform="translate(20.493 66.22) rotate(-113.45)"/><rect class="j" width="36.05" height="2.06" transform="translate(14.346 68.898) rotate(-113.45)"/></g><path class="f" d="M8.258,0a8.02,8.02,0,0,1,8.258,7.758,8.02,8.02,0,0,1-8.258,7.758A8.02,8.02,0,0,1,0,7.758,8.02,8.02,0,0,1,8.258,0Z" transform="translate(102.747 221.594)"/><path class="g" d="M493.488,224.7a8.258,8.258,0,1,1,8.257,8.1A8.177,8.177,0,0,1,493.488,224.7Zm.971,0a7.287,7.287,0,1,0,7.285-7.143,7.215,7.215,0,0,0-7.285,7.143Z" transform="translate(-386.058 4.301)"/><g class="i" transform="translate(86.241 130.109) rotate(-11)"><rect class="f" width="52.88" height="7.53" transform="translate(60.698 17.499) rotate(-168.98)"/><rect class="f" width="62.44" height="3.09" transform="translate(79.059 38.94) rotate(-168.98)"/><rect class="f" width="67.05" height="3.06" transform="translate(65.814 44.209) rotate(-168.98)"/></g><rect class="k" width="64.38" height="104.76" transform="translate(0.094 270.744) rotate(-90)"/><rect class="e" width="59.985" height="101.033" transform="translate(0 269.097) rotate(-90)"/><g class="i" transform="translate(3.977 211.816) rotate(-11)"><rect class="l" width="12.88" height="9.53" transform="translate(12.643 11.816) rotate(-168.98)"/><rect class="l" width="49.44" height="3.09" transform="translate(55.352 39.019) rotate(-168.98)"/><rect class="l" width="36.05" height="2.06" transform="translate(54.077 45.6) rotate(-168.98)"/></g><g class="i" transform="matrix(0.407, -0.914, 0.914, 0.407, 126.068, 233.511)"><rect class="j" width="12.88" height="9.53" transform="translate(18.756 15.609) rotate(-113.45)"/><rect class="j" width="49.44" height="3.09" transform="translate(20.493 66.22) rotate(-113.45)"/><rect class="j" width="36.05" height="2.06" transform="translate(14.346 68.898) rotate(-113.45)"/></g><ellipse class="e" cx="3.97" cy="3.47" rx="3.97" ry="3.47" transform="translate(75.529 101.499)"/><path class="e" d="M146.29,79.4h-4.86V74.54h-1.99V79.4h-4.86v1.99h4.86v4.86h1.99V81.39h4.86Z" transform="translate(35.13 14.931)"/><path class="e" d="M59.23,159.07H54.36V154.2H52.38v4.87H47.51v1.98h4.87v4.87h1.98v-4.87h4.87Z" transform="translate(23.713 21.304)"/><path class="e" d="M139.389,76.816h-2V74.54h-.817v2.276h-2v.932h2v2.276h.817V77.748h2Z" transform="translate(79.716 132.006)"/><path class="e" d="M139.389,76.816h-2V74.54h-.817v2.276h-2v.932h2v2.276h.817V77.748h2Z" transform="translate(-9.369 199.093)"/><ellipse class="e" cx="3.97" cy="3.47" rx="3.97" ry="3.47" transform="translate(217.809 258.988)"/><circle class="e" cx="2.47" cy="2.47" r="2.47" transform="translate(219.778 160.747)"/></g></g></svg>