<svg xmlns="http://www.w3.org/2000/svg" xmlns:xlink="http://www.w3.org/1999/xlink" width="621.05" height="603.485" viewBox="0 0 621.05 603.485"><defs><style>.a{fill:#5eaeff;opacity:0.23;}.b{fill:url(#a);}.c,.s{fill:#306487;}.d{fill:url(#b);}.e{fill:#173447;}.f{fill:url(#c);}.g{fill:#63b3fa;}.h{fill:#3953db;}.i,.p{fill:#7a68d2;}.i{stroke:#3953db;}.j{fill:#4485be;opacity:0.51;}.k{fill:#ffca18;}.l{fill:#ffe489;}.m,.q{fill:#fff;}.n{fill:#6891b8;}.o{fill:#3b55dd;opacity:0.81;}.q{opacity:0.83;}.r,.s{stroke:none;}.t{fill:none;}</style><linearGradient id="a" x1="0.5" y1="0.371" x2="0.5" y2="-0.176" gradientUnits="objectBoundingBox"><stop offset="0" stop-color="#ffca18"/><stop offset="1" stop-color="#e2d8b6"/><stop offset="1" stop-color="#dbe5ee"/></linearGradient><linearGradient id="b" x1="0.5" x2="0.5" y2="1" gradientUnits="objectBoundingBox"><stop offset="0" stop-color="#9aaaaa"/><stop offset="0" stop-color="#306487"/><stop offset="0.914" stop-color="#051218"/><stop offset="1" stop-color="#0a0a0a"/></linearGradient><linearGradient id="c" x1="0.5" x2="0.5" y2="1" gradientUnits="objectBoundingBox"><stop offset="0" stop-color="#78838b"/><stop offset="1" stop-color="#183244"/></linearGradient></defs><g transform="translate(0)"><g transform="translate(5615 -4227.496)"><path class="a" d="M649.756,249.757C437.418,131.171,522.845,40.273,407.314,36.75c-61.077-1.862-125.348,20.14-172.142,97.133-83.649,137.633,5.14,232.743,67.042,277.937a400.433,400.433,0,0,1,80.06,78.158c41.813,53.892,122.25,120.861,218.048,15.931C669.757,429.856,862.1,368.343,649.756,249.757Z" transform="translate(-5819.298 4308.122) rotate(-9)"/><path class="b" d="M20,0H318a20,20,0,0,1,20,20V190a0,0,0,0,1,0,0H0a0,0,0,0,1,0,0V20A20,20,0,0,1,20,0Z" transform="translate(-5562 4426)"/><g class="c" transform="translate(-5562 4616)"><path class="r" d="M 318 45.5 L 20 45.5 C 17.3672924041748 45.5 14.81358337402344 44.98450088500977 12.40987491607666 43.96779251098633 C 10.08787536621094 42.98566818237305 8.002416610717773 41.57958221435547 6.211416721343994 39.78858184814453 C 4.420416831970215 37.99758148193359 3.014333248138428 35.91212463378906 2.032208442687988 33.59012603759766 C 1.015499949455261 31.18641662597656 0.5 28.6327075958252 0.5 26 L 0.5 0.5 L 337.5 0.5 L 337.5 26 C 337.5 28.6327075958252 336.9844970703125 31.18641662597656 335.9678039550781 33.59012603759766 C 334.9856567382813 35.91212463378906 333.57958984375 37.99758148193359 331.78857421875 39.78858184814453 C 329.9975891113281 41.57958221435547 327.9121398925781 42.98566818237305 325.5901184082031 43.96779251098633 C 323.1864318847656 44.98450088500977 320.6327209472656 45.5 318 45.5 Z"/><path class="s" d="M 1 1 L 1 26 C 1 28.56541633605957 1.502197265625 31.0535831451416 2.492706298828125 33.3953742980957 C 3.449615478515625 35.65774917602539 4.8197021484375 37.68979263305664 6.564971923828125 39.43504333496094 C 8.310211181640625 41.18029022216797 10.34225463867188 42.55037689208984 12.6046142578125 43.50728988647461 C 14.9464111328125 44.4977912902832 17.4345703125 45 20 45 L 318 45 C 320.5654296875 45 323.0535888671875 44.4977912902832 325.3953247070313 43.50728988647461 C 327.65771484375 42.55037689208984 329.6897583007813 41.18029022216797 331.4349975585938 39.43504333496094 C 333.1802978515625 37.68979263305664 334.5503845214844 35.65774917602539 335.5072937011719 33.3953742980957 C 336.497802734375 31.0535831451416 337 28.56541633605957 337 26 L 337 1 L 1 1 M 0 0 L 338 0 L 338 26 C 338 37.04570770263672 329.045654296875 46 318 46 L 20 46 C 8.95428466796875 46 0 37.04570770263672 0 26 L 0 0 Z"/></g><rect class="d" width="60" height="39" transform="translate(-5422 4661)"/><rect class="e" width="131" height="19" transform="translate(-5461 4700)"/><circle class="f" cx="7" cy="7" r="7" transform="translate(-5400 4633)"/><rect class="g" width="203.74" height="104.674" rx="10" transform="translate(-5286.165 4528.799)"/><rect class="h" width="77.74" height="83.674" rx="5" transform="translate(-5271.165 4535.799)"/><g class="i" transform="translate(-5263 4585)"><rect class="r" width="10" height="21"/><rect class="t" x="0.5" y="0.5" width="9" height="20"/></g><g class="i" transform="translate(-5251 4572)"><rect class="r" width="10" height="34"/><rect class="t" x="0.5" y="0.5" width="9" height="33"/></g><g class="i" transform="translate(-5239 4560)"><rect class="r" width="10" height="46"/><rect class="t" x="0.5" y="0.5" width="9" height="45"/></g><ellipse class="j" cx="26" cy="26.5" rx="26" ry="26.5" transform="translate(-5218 4536)"/><g transform="translate(275.448 936.033) rotate(11)"><path class="k" d="M43.613,102.854c6.747,0,10.429-4.5,10.429-12.278L34.374,89.322C34.374,97.1,36.866,102.854,43.613,102.854ZM83.939,79.74c-3.691-4.569-10.6-11.443-10.6-33.959,0-17.1-10.408-30.792-24.441-34.151V7.043C48.9,3.154,46.165,0,42.792,0s-6.109,3.154-6.109,7.043V11.63C22.649,14.989,12.242,28.679,12.242,45.781c0,22.516-6.906,29.39-10.6,33.959A7.482,7.482,0,0,0,0,84.519c.021,3.61,2.48,7.043,6.132,7.043H79.451c3.653,0,6.113-3.434,6.132-7.043a7.478,7.478,0,0,0-1.645-4.778Z" transform="translate(-4635.098 4520.63) rotate(14)"/><path class="l" d="M40.915,98.476c6.33,0,9.784-4.306,9.784-11.755l-18.452-1.2C32.248,92.969,34.585,98.476,40.915,98.476Zm37.831-22.13C75.283,71.971,68.8,65.39,68.8,43.832c0-16.374-9.764-29.481-22.929-32.7V6.743C45.876,3.02,43.309,0,40.144,0s-5.731,3.02-5.731,6.743v4.392c-13.165,3.216-22.929,16.323-22.929,32.7,0,21.558-6.479,28.139-9.941,32.514A7.259,7.259,0,0,0,0,80.92c.02,3.456,2.326,6.743,5.753,6.743H74.536c3.427,0,5.735-3.287,5.753-6.743a7.255,7.255,0,0,0-1.543-4.575Z" transform="translate(-4630.526 4522.323) rotate(14)"/></g><circle class="j" cx="6.5" cy="6.5" r="6.5" transform="translate(-5180 4590)"/><rect class="m" width="3" height="25" rx="1.5" transform="translate(-5080.246 4506.913) rotate(8)"/><rect class="m" width="3" height="25" rx="1.5" transform="translate(-5071.496 4478.071) rotate(16)"/><rect class="m" width="3" height="25" rx="1.5" transform="matrix(0.899, 0.438, -0.438, 0.899, -5058.368, 4450.607)"/><rect class="m" width="3" height="25" rx="1.5" transform="translate(-5038.799 4423.842) rotate(39)"/><path class="m" d="M-1.391-1,.273,4.7,3,23.5a1.5,1.5,0,0,1-3,0S-.209,8.886-2.687,2.548-1.391-1-1.391-1Z" transform="translate(-5016.799 4397.842) rotate(39)"/><path class="m" d="M-1.391-1,.273,4.7l1.416,7.285L3,23.5a1.5,1.5,0,0,1-3,0S-.209,8.886-2.687,2.548-1.391-1-1.391-1Z" transform="translate(-5012.872 4363.334) rotate(11)"/><path class="m" d="M-1.391-1,.273,4.7l1.416,7.285L3,23.5a1.5,1.5,0,0,1-3,0S-.209,8.886-2.687,2.548-1.391-1-1.391-1Z" transform="translate(-5029.498 4326.821) rotate(-22)"/><path class="m" d="M-1.391-1,.273,4.7l1.416,7.285L3,23.5a1.5,1.5,0,0,1-3,0S-.209,8.886-2.687,2.548-1.391-1-1.391-1Z" transform="matrix(0.839, -0.545, 0.545, 0.839, -5050.51, 4302.811)"/><path class="m" d="M-1.391-1,.273,4.7l1.416,7.285L3,23.5a1.5,1.5,0,0,1-3,0S-.209,8.886-2.687,2.548-1.391-1-1.391-1Z" transform="translate(-5079.734 4280.593) rotate(-47)"/><path class="m" d="M-1.391-1,.273,4.7l1.416,7.285L3,23.5a1.5,1.5,0,0,1-3,0S-.209,8.886-2.687,2.548-1.391-1-1.391-1Z" transform="matrix(0.407, -0.914, 0.914, 0.407, -5116.938, 4266.764)"/><path class="m" d="M-1.391-1,.273,4.7l1.416,7.285L3,23.5a1.5,1.5,0,0,1-3,0S-1.205,8.489-3.683,2.151-1.391-1-1.391-1Z" transform="translate(-5151.988 4266.479) rotate(-85)"/><path class="m" d="M-1.391-1,.273,4.7l1.416,7.285L3,23.5a1.5,1.5,0,0,1-3,0S-1.205,8.489-3.683,2.151-1.391-1-1.391-1Z" transform="translate(-5184.953 4279.114) rotate(-103)"/><path class="m" d="M2.188-2.378,1.737,4.036l-.048,7.952L3,23.5a1.5,1.5,0,0,1-3,0S-5.34,6.2-1.924-.8,2.188-2.378,2.188-2.378Z" transform="matrix(-0.934, -0.358, 0.358, -0.934, -5213.303, 4342.763)"/><path class="m" d="M-3.217-1.316A12.411,12.411,0,0,1,.273,4.7l1.416,7.285L3,23.5a1.5,1.5,0,0,1-3,0S-1.328,9.015-3.806,2.677-5.989-3.837-3.217-1.316Z" transform="translate(-5206.234 4306.414) rotate(-139)"/><rect class="m" width="3" height="25" rx="1.5" transform="translate(-5218.072 4349.335) rotate(43)"/><rect class="m" width="3" height="25" rx="1.5" transform="matrix(-0.53, -0.848, 0.848, -0.53, -5260.306, 4388.396)"/><rect class="m" width="3" height="25" rx="1.5" transform="translate(-5294.528 4400.573) rotate(-112)"/><rect class="m" width="3" height="25" rx="1.5" transform="matrix(-0.174, -0.985, 0.985, -0.174, -5331.549, 4408.148)"/><rect class="m" width="3" height="25" rx="1.5" transform="translate(-5369.611 4414.937) rotate(-99)"/><rect class="m" width="3" height="25" rx="1.5" transform="matrix(-0.07, -0.998, 0.998, -0.07, -5407.865, 4416.868)"/><rect class="m" width="3" height="25" rx="1.5" transform="translate(-5445.669 4421.725) rotate(-98)"/><g transform="translate(-3 6)"><rect class="n" width="3" height="25" rx="1.5" transform="translate(-5099.792 4498.299) rotate(8)"/><rect class="n" width="3" height="25" rx="1.5" transform="translate(-5091.043 4469.457) rotate(16)"/><rect class="n" width="3" height="25" rx="1.5" transform="matrix(0.899, 0.438, -0.438, 0.899, -5077.915, 4444.022)"/><rect class="n" width="3" height="25" rx="1.5" transform="translate(-5058.346 4418.254) rotate(39)"/><path class="n" d="M2.139.61,3.8,6.318l2.727,18.8a1.5,1.5,0,0,1-3,0S3.321,10.5.843,4.162,2.139.61,2.139.61Z" transform="translate(-5038.073 4389.739) rotate(39)"/><path class="n" d="M2.139.61,3.8,6.318,5.218,13.6,6.529,25.114a1.5,1.5,0,0,1-3,0S3.321,10.5.843,4.162,2.139.61,2.139.61Z" transform="translate(-5035.576 4357.588) rotate(11)"/><path class="n" d="M2.139.61,3.8,6.318,5.218,13.6,6.529,25.114a1.5,1.5,0,0,1-3,0S3.321,10.5.843,4.162,2.139.61,2.139.61Z" transform="translate(-5052.922 4324.477) rotate(-22)"/><path class="n" d="M2.139.61,3.8,6.318,5.218,13.6,6.529,25.114a1.5,1.5,0,0,1-3,0S3.321,10.5.843,4.162,2.139.61,2.139.61Z" transform="matrix(0.839, -0.545, 0.545, 0.839, -5073.896, 4303.38)"/><path class="n" d="M2.139.61,3.8,6.318,5.218,13.6,6.529,25.114a1.5,1.5,0,0,1-3,0S3.321,10.5.843,4.162,2.139.61,2.139.61Z" transform="translate(-5102.869 4282.074) rotate(-47)"/><path class="n" d="M2.139.61,3.8,6.318,5.218,13.6,6.529,25.114a1.5,1.5,0,0,1-3,0S3.321,10.5.843,4.162,2.139.61,2.139.61Z" transform="matrix(0.407, -0.914, 0.914, 0.407, -5135.725, 4269.332)"/><path class="n" d="M3.006.8,4.669,6.507l1.416,7.285L7.4,25.3a1.5,1.5,0,0,1-3,0S3.191,10.293.714,3.955,3.006.8,3.006.8Z" transform="translate(-5168.545 4270.702) rotate(-85)"/><path class="n" d="M3.006.8,4.669,6.507l1.416,7.285L7.4,25.3a1.5,1.5,0,0,1-3,0S3.191,10.293.714,3.955,3.006.8,3.006.8Z" transform="translate(-5198.646 4283.804) rotate(-103)"/><path class="n" d="M5.253,2,4.8,8.417l-.048,7.952L6.065,27.881a1.5,1.5,0,1,1-3,0s-5.34-17.3-1.924-24.3S5.253,2,5.253,2Z" transform="matrix(-0.934, -0.358, 0.358, -0.934, -5223.303, 4345.97)"/><path class="n" d="M2.277,1.516a12.411,12.411,0,0,1,3.49,6.019L7.183,14.82,8.494,26.331a1.5,1.5,0,0,1-3,0S4.166,11.847,1.688,5.509-.5-1.006,2.277,1.516Z" transform="translate(-5215.772 4312.155) rotate(-139)"/><rect class="n" width="3" height="25" rx="1.5" transform="translate(-5228.684 4346.353) rotate(43)"/><rect class="n" width="3" height="25" rx="1.5" transform="matrix(-0.53, -0.848, 0.848, -0.53, -5269.833, 4384.675)"/><rect class="n" width="3" height="25" rx="1.5" transform="translate(-5302.608 4396.374) rotate(-112)"/><rect class="n" width="3" height="25" rx="1.5" transform="matrix(-0.174, -0.985, 0.985, -0.174, -5338.047, 4403.617)"/><rect class="n" width="3" height="25" rx="1.5" transform="translate(-5374.441 4410.176) rotate(-99)"/><rect class="n" width="3" height="25" rx="1.5" transform="matrix(-0.07, -0.998, 0.998, -0.07, -5411.026, 4412.013)"/><rect class="n" width="3" height="25" rx="1.5" transform="translate(-5445.669 4416.735) rotate(-98)"/><rect class="n" width="3" height="23" rx="1.5" transform="translate(-5479.689 4422.265) rotate(-98)"/></g><rect class="o" width="149.74" height="133.674" rx="5" transform="translate(-5546.165 4451.799)"/><rect class="p" width="14" height="21" transform="translate(-5530 4546)"/><rect class="p" width="14" height="34" transform="translate(-5510 4533)"/><rect class="p" width="14" height="73" transform="translate(-5490 4494)"/><rect class="o" width="59.74" height="15.674" rx="5" transform="translate(-5393.165 4484.799)"/><rect class="o" width="114.74" height="15.674" rx="5" transform="translate(-5393.165 4507.799)"/><rect class="o" width="78.74" height="15.674" rx="5" transform="translate(-5393.165 4530.799)"/><circle class="q" cx="6.5" cy="6.5" r="6.5" transform="translate(-5271 4452)"/><circle class="m" cx="5.1" cy="5.1" r="5.1" transform="translate(-5264.972 4691.026)"/><circle class="m" cx="5.1" cy="5.1" r="5.1" transform="translate(-5177.972 4488.026)"/><path class="m" d="M152.94,592.21H148.4v-4.54h-1.85v4.54h-4.54v1.85h4.54v4.53h1.85v-4.53h4.54Z" transform="translate(-5503.981 3882.986)"/><path class="m" d="M266.94,590.21H262.4v-4.54h-1.85v4.54h-4.54v1.85h4.54v4.53h1.85v-4.53h4.54Z" transform="translate(-5503.981 3882.986)"/><path class="m" d="M154.97,692.71H152.9v-2.07h-.84v2.07h-2.07v.84h2.07v2.07h.84v-2.07h2.07Z" transform="translate(-5503.981 3882.986)"/><path class="m" d="M322.97,368.71H320.9v-2.07h-.84v2.07h-2.07v.84h2.07v2.07h.84v-2.07h2.07Z" transform="translate(-5465.981 4245.986)"/><path class="m" d="M152.94,592.21H148.4v-4.54h-1.85v4.54h-4.54v1.85h4.54v4.53h1.85v-4.53h4.54Z" transform="translate(-5430.981 3973.986)"/><path class="m" d="M266.94,590.21H262.4v-4.54h-1.85v4.54h-4.54v1.85h4.54v4.53h1.85v-4.53h4.54Z" transform="translate(-5430.981 3973.986)"/></g></g></svg>